<svg width="44" height="46" viewBox="0 0 44 46" fill="none" xmlns="http://www.w3.org/2000/svg">
<path d="M23.0748 1.38184C34.8754 1.38184 43 11.0541 43 22.9963C43 29.7051 41.0872 34.6422 35.6729 38.4506C34.6698 39.1568 33.2866 41.1681 32.215 41.7861C29.0935 43.5894 25.4797 44.6171 21.6355 44.6171C18.8941 44.6171 15.4424 44.0623 13.0935 43.0219C9.94704 41.6221 8.09657 39.3774 5.96573 36.6094C2.84423 32.5551 1 27.347 1 21.8992C1 16.4515 5.42367 9.66067 10.3832 6.00361C14.2274 3.17254 17.9283 1.38184 23.081 1.38184L23.0748 1.38184Z" fill="#F8F6EF" stroke="#020201" stroke-width="1.23529"/>
<path d="M27.9904 30.4546L16.2501 30.499L16.2501 27.8308L21.6755 23.317C22.1203 22.9613 22.4983 22.6277 22.8095 22.3164C23.1208 21.9903 23.3728 21.679 23.5655 21.3826C23.7731 21.0713 23.9213 20.7674 24.0103 20.4709C24.114 20.1596 24.1659 19.8335 24.1659 19.4926C24.1659 18.6624 23.9658 18.0324 23.5655 17.6026C23.1801 17.1578 22.6168 16.9355 21.8757 16.9355C21.1048 16.9355 20.5045 17.1875 20.0746 17.6915C19.6595 18.1955 19.452 18.907 19.452 19.8261L15.8721 19.8261C15.8721 18.5957 16.1167 17.5284 16.6059 16.6242C17.1099 15.7051 17.8066 14.9936 18.696 14.4896C19.6003 13.9856 20.6527 13.7336 21.8534 13.7336C23.1134 13.7336 24.1881 13.956 25.0775 14.4007C25.967 14.8306 26.6488 15.4606 27.1232 16.2907C27.6124 17.106 27.857 18.0991 27.857 19.2702C27.857 19.8335 27.7754 20.3746 27.6124 20.8934C27.4493 21.3974 27.2195 21.8866 26.9231 22.3609C26.6266 22.8353 26.2708 23.2948 25.8558 23.7395C25.4407 24.1842 24.9738 24.6215 24.455 25.0514L20.8084 28.0976L19.4743 27.1193L27.9904 27.1193L27.9904 30.4546ZM31.637 30.7881C31.0737 30.7881 30.5919 30.5954 30.1917 30.21C29.7914 29.8097 29.5913 29.3354 29.5913 28.7869C29.5913 28.2236 29.7914 27.7493 30.1917 27.3638C30.5919 26.9636 31.0737 26.7635 31.637 26.7635C32.1854 26.7635 32.6598 26.9636 33.06 27.3638C33.4751 27.7493 33.6826 28.2236 33.6826 28.7869C33.6826 29.3354 33.4751 29.8097 33.06 30.21C32.6598 30.5954 32.1854 30.7881 31.637 30.7881Z" fill="#702121"/>
</svg>
