<svg width="62" height="65" viewBox="0 0 62 65" fill="none" xmlns="http://www.w3.org/2000/svg">
<path d="M32.5354 1.73535C49.3934 1.73535 61 15.5529 61 32.6132C61 42.1972 58.2675 49.2501 50.5327 54.6907C49.0997 55.6995 47.1237 58.5729 45.5928 59.4557C41.1335 62.0318 35.9711 63.5001 30.4793 63.5001C26.563 63.5001 21.6319 62.7074 18.2764 61.2211C13.7815 59.2215 11.138 56.0148 8.0939 52.0605C3.63462 46.2686 1 38.8284 1 31.0459C1 23.2634 7.31953 13.5623 14.4045 8.33788C19.8963 4.29349 25.1833 1.73535 32.5443 1.73535L32.5354 1.73535Z" fill="#F8F6EF" stroke="#020201" stroke-width="1.76471"/>
<path d="M37.9377 24.209L29.6153 31.5148L26.1847 29.2595L34.2847 22.176L33.0141 24.6219L22.6271 24.6219L22.6271 20.1113L37.9377 20.1113L37.9377 24.209ZM29.6153 32.5631L26.1847 32.5631L26.1847 29.2595C26.6083 28.836 27.2118 28.5501 27.9953 28.4019C28.8 28.2537 29.5306 28.1795 30.1871 28.1795C31.2671 28.1795 32.3153 28.349 33.3318 28.6878C34.3483 29.0266 35.2589 29.5348 36.0636 30.2125C36.8894 30.869 37.5353 31.6948 38.0012 32.6901C38.4883 33.6642 38.7318 34.7866 38.7318 36.0572C38.7318 37.709 38.3294 39.1384 37.5247 40.3454C36.7412 41.5313 35.6824 42.4419 34.3483 43.0772C33.0141 43.7125 31.553 44.0301 29.9647 44.0301C28.44 44.0301 27.0318 43.7231 25.74 43.109C24.4694 42.4948 23.453 41.5842 22.6906 40.3772C21.9283 39.1701 21.5471 37.6878 21.5471 35.9301L26.6294 35.9301C26.6294 37.0948 26.9471 37.9842 27.5824 38.5984C28.2177 39.1913 29.0541 39.4878 30.0918 39.4878C31.0871 39.4878 31.8918 39.1701 32.5059 38.5348C33.1412 37.8995 33.4589 37.0631 33.4589 36.0254C33.4589 35.0937 33.1624 34.289 32.5694 33.6113C31.9765 32.9125 30.9918 32.5631 29.6153 32.5631ZM43.03 44.0301C42.2253 44.0301 41.537 43.7548 40.9653 43.2042C40.3935 42.6325 40.1076 41.9548 40.1076 41.1713C40.1076 40.3666 40.3935 39.689 40.9653 39.1384C41.537 38.5666 42.2253 38.2807 43.03 38.2807C43.8135 38.2807 44.4911 38.5666 45.0629 39.1384C45.6558 39.689 45.9523 40.3666 45.9523 41.1713C45.9523 41.9548 45.6558 42.6325 45.0629 43.2042C44.4911 43.7548 43.8135 44.0301 43.03 44.0301Z" fill="#702121"/>
</svg>
