<svg width="62" height="65" viewBox="0 0 62 65" fill="none" xmlns="http://www.w3.org/2000/svg">
<path d="M32.0073 1.7813C48.8618 1.43573 60.7491 15.0125 61.0989 32.0692C61.2953 41.6512 58.7079 48.7586 51.0863 54.3566C49.6743 55.3946 47.7576 58.3079 46.2451 59.2218C41.8396 61.8889 36.7083 63.4626 31.2177 63.5752C27.3022 63.6554 22.356 62.964 18.9706 61.5469C14.4357 59.6398 11.727 56.488 8.60253 52.5969C4.02546 46.8977 1.23888 39.513 1.07935 31.7321C0.919815 23.9512 7.03916 14.1226 14.0156 8.7541C19.4233 4.59799 24.6568 1.932 32.0162 1.78111L32.0073 1.7813Z" fill="#F8F6EF" stroke="#020201" stroke-width="1.76471"/>
<path d="M38.326 20.031L38.8078 43.5319L33.9488 43.6315L33.467 20.1306L38.326 20.031ZM22.0841 35.2012L31.9108 20.1625L37.3415 20.0512L27.3003 35.4755L22.0841 35.2012ZM41.6125 39.3124L22.1766 39.7109L22.0841 35.2012L41.52 34.8027L41.6125 39.3124ZM45.8177 43.8012C45.0131 43.8177 44.3194 43.5566 43.7365 43.0178C43.1531 42.4579 42.8534 41.7863 42.8373 41.0029C42.8208 40.1984 43.0928 39.515 43.6531 38.9528C44.2131 38.3694 44.8953 38.0695 45.6998 38.053C46.4832 38.037 47.1666 38.3089 47.7499 38.8688C48.354 39.4071 48.6643 40.0786 48.6808 40.8831C48.6969 41.6665 48.4144 42.35 47.8333 42.9338C47.2729 43.496 46.6011 43.7852 45.8177 43.8012Z" fill="#702121"/>
</svg>
