<svg width="54" height="56" viewBox="0 0 54 56" fill="none" xmlns="http://www.w3.org/2000/svg">
<path d="M27.7683 0.991511C42.3755 0.692017 52.6779 12.4585 52.981 27.241C53.1513 35.5454 50.9089 41.7052 44.3035 46.5568C43.0797 47.4564 41.4186 49.9812 40.1078 50.7733C36.2896 53.0847 31.8425 54.4486 27.084 54.5462C23.6906 54.6158 19.4038 54.0165 16.4699 52.7884C12.5396 51.1355 10.1921 48.4039 7.48417 45.0317C3.51738 40.0924 1.10234 33.6923 0.96408 26.9489C0.825819 20.2055 6.12925 11.6873 12.1755 7.03461C16.8622 3.43264 21.3979 1.12212 27.776 0.991353L27.7683 0.991511Z" fill="#F8F6EF" stroke="#020201" stroke-width="1.52941"/>
<path d="M26.9703 37.1106C25.5208 37.1403 24.2395 36.8729 23.1265 36.3083C22.0135 35.7437 21.1435 34.9447 20.5166 33.9112C19.8892 32.8593 19.5613 31.6362 19.5327 30.2416L23.9365 30.1513C23.956 31.1055 24.2375 31.8524 24.7809 32.3919C25.3243 32.9315 26.0639 33.1917 26.9997 33.1725C27.6786 33.1586 28.2538 33.0091 28.7253 32.7241C29.1967 32.4391 29.5556 32.037 29.8019 31.518C30.0666 30.9986 30.1917 30.3811 30.177 29.6654C30.1627 28.9682 30.022 28.3745 29.755 27.8843C29.5063 27.3938 29.1408 27.0249 28.6584 26.7778C28.194 26.512 27.6224 26.3861 26.9435 26.4C26.2646 26.4139 25.6441 26.5918 25.082 26.9338C24.5196 27.2574 24.115 27.6695 23.8683 28.1702L19.779 27.4831L22.1147 16.5037L33.1792 16.2768L33.2638 20.4054L24.5663 20.5837L25.6722 19.4596L24.3763 24.7454L22.9075 25.6291C23.2561 24.7225 23.8657 24.0124 24.7363 23.499C25.6252 22.9851 26.6752 22.7158 27.8862 22.6909C29.2074 22.6638 30.3782 22.9152 31.3987 23.445C32.4192 23.9747 33.2242 24.7384 33.8137 25.7359C34.4032 26.7335 34.712 27.9203 34.7403 29.2965C34.7715 30.8195 34.4595 32.1659 33.8043 33.3359C33.167 34.487 32.2587 35.396 31.0791 36.0626C29.918 36.7289 28.5484 37.0783 26.9703 37.1106ZM38.4637 36.9025C37.7665 36.9168 37.1652 36.6905 36.66 36.2236C36.1544 35.7383 35.8947 35.1562 35.8808 34.4773C35.8665 33.78 36.1021 33.1878 36.5878 32.7005C37.0731 32.195 37.6643 31.935 38.3616 31.9207C39.0405 31.9068 39.6328 32.1425 40.1383 32.6277C40.6619 33.0943 40.9308 33.6762 40.9451 34.3735C40.959 35.0524 40.7142 35.6448 40.2106 36.1508C39.7249 36.638 39.1427 36.8886 38.4637 36.9025Z" fill="#702121"/>
</svg>
