<svg width="85" height="88" viewBox="0 0 85 88" fill="none" xmlns="http://www.w3.org/2000/svg">
<path d="M43.6674 2.07259C66.7019 1.60031 82.948 20.1552 83.4259 43.466C83.6944 56.5614 80.1583 66.2749 69.7421 73.9255C67.8123 75.3441 65.1929 79.3256 63.1258 80.5747C57.1049 84.2196 50.0922 86.3704 42.5884 86.5242C37.2372 86.6339 30.4773 85.689 25.8507 83.7522C19.653 81.1458 15.9511 76.8384 11.6809 71.5205C5.42562 63.7316 1.61729 53.6392 1.39926 43.0054C1.18123 32.3715 9.54434 18.9391 19.0788 11.6021C26.4693 5.92207 33.6218 2.27856 43.6796 2.07234L43.6674 2.07259Z" fill="#F8F6EF" stroke="#020201" stroke-width="2.41176"/>
<path d="M35.6286 35.4645L41.7449 26.6984L49.7744 26.5337L41.1215 38.6519L39.1595 38.2579C39.5835 37.7571 40.2693 37.3233 41.2171 36.9565C42.1648 36.5897 43.0727 36.3974 43.9407 36.3796C46.1398 36.3345 48.0738 36.7725 49.7427 37.6936C51.4399 38.5851 52.7687 39.8605 53.729 41.5197C54.7183 43.1784 55.2354 45.1072 55.2805 47.3063C55.3286 49.65 54.8354 51.7154 53.801 53.5024C52.7955 55.2888 51.3772 56.7073 49.5462 57.758C47.7145 58.7798 45.6123 59.315 43.2396 59.3637C40.838 59.4129 38.6861 58.936 36.784 57.9329C34.8819 56.9298 33.3771 55.5422 32.2697 53.7702C31.1623 51.9981 30.5858 49.9981 30.5401 47.7701C30.5128 46.4391 30.6609 45.1913 30.9844 44.0268C31.3073 42.8334 31.8457 41.5631 32.5997 40.2161C33.3531 38.8401 34.3627 37.2563 35.6286 35.4645ZM37.7467 47.7092C37.7693 48.8087 38.0062 49.7736 38.4574 50.6038C38.9376 51.4335 39.573 52.0717 40.3638 52.5187C41.1545 52.9656 42.0707 53.1784 43.1124 53.1571C44.1251 53.1363 45.0173 52.8864 45.7891 52.4075C46.5608 51.9285 47.1551 51.265 47.572 50.417C47.9888 49.5689 48.1859 48.5952 48.1634 47.4956C48.1408 46.3961 47.9042 45.4457 47.4536 44.6444C47.0024 43.8142 46.3814 43.1756 45.5906 42.7287C44.8288 42.2811 43.9271 42.068 42.8854 42.0894C41.8438 42.1108 40.9226 42.3612 40.1219 42.8408C39.3502 43.3198 38.7559 43.9833 38.339 44.8313C37.9216 45.6504 37.7242 46.6097 37.7467 47.7092ZM61.3436 58.9925C60.2441 59.015 59.296 58.6581 58.4993 57.9218C57.702 57.1566 57.2924 56.2387 57.2705 55.1681C57.2479 54.0686 57.6196 53.1346 58.3854 52.3663C59.1506 51.569 60.083 51.1591 61.1825 51.1366C62.2531 51.1146 63.1871 51.4863 63.9843 52.2515C64.8099 52.9872 65.234 53.9048 65.2566 55.0044C65.2785 56.075 64.8924 57.0092 64.0982 57.807C63.3324 58.5754 62.4142 58.9705 61.3436 58.9925Z" fill="#702121"/>
</svg>
