<svg width="645" height="75" viewBox="0 0 645 75" fill="none" xmlns="http://www.w3.org/2000/svg">
<path d="M640.669 70.3709C640.608 66.0749 640.615 60.8344 641.784 57C645.064 46.2444 642.06 45.6352 642.898 35C644.303 17.1629 643.4 19.6538 642.063 4.61156C641.895 2.72589 640.337 1.26925 638.444 1.27552C615.738 1.35074 571.217 1.43942 550.783 1.264C524.519 1.03852 505.959 1.34808 489.083 1.62954L487.934 1.64871C470.749 1.93497 355.977 1.90105 351.443 1.61479C346.908 1.32852 339.2 3.02131 335.271 2.85158C331.341 2.68184 324.842 1.90105 322.424 1.90105C123.629 1.90105 286.823 1.61509 88.3005 1.61509C58.8868 1.61509 30.2722 1.10936 6.24524 1.01161C4.24377 1.00347 2.62897 2.6272 2.55774 4.62741C2.30487 11.7289 1.3974 17.0276 1.3974 29.0971C1.3974 38.8941 2.36194 56.9411 1.72351 68.4105C1.60364 70.563 3.40045 72.4377 5.5564 72.444C228.531 73.0945 196.461 72.4378 326.986 73.4033C381.065 73.8033 550.978 74.0616 637.16 73.9872C639.157 73.9855 640.697 72.3675 640.669 70.3709Z" fill="#F5F3EC" stroke="black" stroke-width="2" stroke-linejoin="round"/>
<path d="M327.873 67.5014C380.923 67.8356 547.571 68.0514 632.157 67.9894C634.154 67.9879 635.709 66.3682 635.74 64.3714C636.023 46.2095 638.265 28.6246 637.026 10.5197C636.899 8.65066 635.343 7.22499 633.469 7.23027C611.185 7.29312 567.515 7.36716 547.47 7.2206C521.699 7.03219 503.487 7.29086 486.928 7.52606L485.8 7.54207C468.938 7.78128 356.32 7.75293 351.871 7.51373C347.422 7.27452 339.859 8.68904 336.003 8.54721C332.147 8.40537 325.77 7.75293 323.397 7.75293C128.334 7.75293 288.464 7.51398 93.6683 7.51398C64.834 7.51398 36.7824 7.09218 13.2202 7.00994C11.2192 7.00295 9.60699 8.6263 9.50793 10.6248C9.22803 16.2694 8.39648 20.732 8.39648 30.4784C8.39648 38.4568 9.29541 52.983 8.76123 62.588C8.63989 64.7694 10.4539 66.6948 12.6387 66.7002C231.252 67.2431 199.83 66.6948 327.873 67.5014Z" fill="#F5F3EC" stroke="black" stroke-width="2" stroke-linejoin="round"/>
</svg>
