<svg width="222" height="221" viewBox="0 0 222 221" fill="none" xmlns="http://www.w3.org/2000/svg">
<g clip-path="url(#clip0_521_312)">
<path d="M110.764 1C50.4141 1 1.49414 49.92 1.49414 110.27C1.49414 119.07 2.53414 127.63 4.50414 135.83C6.75414 145.2 10.2041 154.1 14.6841 162.36C24.7441 180.88 39.4941 194.2 57.9941 204.29C73.5141 212.76 91.8341 219.54 110.764 219.54C138.354 219.54 163.554 209.32 182.784 192.45C205.624 172.42 220.034 143.03 220.034 110.27C220.034 90.59 214.834 72.12 205.724 56.18C203.024 51.45 199.984 46.94 196.624 42.69C191.124 35.71 184.844 27.74 177.824 22.28C171.644 17.47 164.874 15 157.734 11.59C151.094 8.42 146.464 7.95 139.164 6.17C130.824 4.13 119.714 1 110.754 1H110.764ZM111.394 186.73C81.6541 186.73 55.3641 167.32 43.4241 142.12C41.2741 137.59 39.5741 132.81 38.3741 127.83C37.0141 122.2 34.7241 116.11 34.7241 110.06C34.7241 102.65 37.3741 95.7 39.3841 88.94C44.2941 72.48 54.7441 58.41 68.5741 48.89C80.5641 40.63 95.1041 35.79 110.764 35.79C126.424 35.79 141.354 40.76 153.444 49.22C157.474 52.04 163.094 54.32 166.484 57.87C170.224 61.78 171.664 67.03 174.484 71.68C181.314 82.93 185.244 96.14 185.244 110.27C185.244 120.34 184.594 130.29 180.974 139.05C179.074 143.65 175.374 147.66 172.634 151.74C169.744 156.05 166.414 160.03 162.704 163.64C149.284 176.7 131.594 186.73 111.384 186.73H111.394Z" fill="#EBE7DD" stroke="black" stroke-width="2"/>
<path d="M113.084 75.9902C132.024 75.9902 145.064 91.3302 145.064 110.27C145.064 120.91 141.994 128.74 133.304 134.78C131.694 135.9 129.474 139.09 127.754 140.07C122.744 142.93 116.944 144.56 110.774 144.56C106.374 144.56 100.834 143.68 97.0643 142.03C92.0143 139.81 89.0443 136.25 85.6243 131.86C80.6143 125.43 77.6543 117.17 77.6543 108.53C77.6543 99.8902 84.7543 89.1202 92.7143 83.3202C98.8843 78.8302 104.824 75.9902 113.094 75.9902H113.084Z" fill="#EBE7DD" stroke="black" stroke-width="2"/>
<path d="M126.423 27.3098C125.263 27.0898 124.303 26.6598 123.543 26.0198C122.783 25.3798 122.263 24.5598 121.963 23.5798C121.673 22.5998 121.633 21.4998 121.863 20.2698C122.093 19.0598 122.523 18.0398 123.173 17.2298C123.823 16.4198 124.623 15.8498 125.593 15.5098C126.553 15.1698 127.613 15.1098 128.763 15.3298C129.733 15.5098 130.573 15.8498 131.263 16.3398C131.953 16.8298 132.483 17.4398 132.843 18.1698C133.203 18.8998 133.363 19.7098 133.313 20.5998L130.623 20.0998C130.563 19.4798 130.323 18.9698 129.913 18.5698C129.493 18.1698 128.933 17.8998 128.233 17.7698C127.603 17.6498 127.033 17.6898 126.533 17.8898C126.023 18.0898 125.603 18.4298 125.263 18.9098C124.923 19.3898 124.683 20.0098 124.543 20.7498C124.413 21.4698 124.413 22.1198 124.563 22.6998C124.713 23.2798 124.983 23.7598 125.383 24.1298C125.783 24.4998 126.293 24.7498 126.913 24.8598C127.623 24.9898 128.263 24.9398 128.823 24.6998C129.383 24.4598 129.793 24.0698 130.053 23.5198L132.693 24.0098C132.393 24.8398 131.943 25.5398 131.323 26.0898C130.703 26.6498 129.973 27.0298 129.133 27.2398C128.293 27.4498 127.383 27.4698 126.413 27.2898L126.423 27.3098Z" fill="black"/>
<path d="M139.262 18.1296L135.702 29.3996L133.232 28.6196L136.792 17.3496L139.262 18.1296ZM133.672 28.7596L134.392 26.4796L140.862 28.5296L140.142 30.8096L133.672 28.7596Z" fill="black"/>
<path d="M148.313 21.4199L143.853 32.3699L141.453 31.3899L145.913 20.4399L148.313 21.4199Z" fill="black"/>
<path d="M150.334 35.6799C149.294 35.1299 148.504 34.4299 147.974 33.5899C147.444 32.7499 147.184 31.8199 147.194 30.7899C147.204 29.7699 147.504 28.6999 148.084 27.5999C148.664 26.5099 149.384 25.6699 150.244 25.0899C151.104 24.5099 152.044 24.1999 153.064 24.1699C154.084 24.1399 155.104 24.3899 156.144 24.9399C157.024 25.3999 157.714 25.9699 158.224 26.6499C158.744 27.3299 159.064 28.0699 159.194 28.8699C159.324 29.6699 159.234 30.4899 158.924 31.3299L156.514 30.0499C156.644 29.4399 156.564 28.8899 156.284 28.3799C156.004 27.8699 155.554 27.4499 154.924 27.1199C154.354 26.8199 153.804 26.6899 153.264 26.7299C152.724 26.7699 152.214 26.9699 151.744 27.3299C151.274 27.6899 150.864 28.2099 150.514 28.8699C150.174 29.5199 149.984 30.1399 149.944 30.7399C149.914 31.3399 150.034 31.8699 150.304 32.3499C150.574 32.8299 150.994 33.2099 151.544 33.4999C152.184 33.8399 152.804 33.9799 153.414 33.9199C154.014 33.8599 154.524 33.6099 154.944 33.1699L157.314 34.4299C156.784 35.1399 156.144 35.6599 155.384 36.0099C154.624 36.3599 153.814 36.5099 152.954 36.4599C152.084 36.4099 151.214 36.1599 150.344 35.6899L150.334 35.6799Z" fill="black"/>
<path d="M165.453 30.8201L158.563 40.4201L156.463 38.9101L163.353 29.3101L165.453 30.8201ZM171.393 35.0801L158.843 38.8901L161.113 35.7201L168.913 33.3001L171.393 35.0801ZM162.663 37.5701L165.323 36.6901L164.523 44.7101L162.093 42.9701L162.663 37.5801V37.5701Z" fill="black"/>
<path d="M179.402 44.3197L171.882 51.7497L170.062 49.9097L177.582 42.4797L179.402 44.3197ZM174.412 40.8997L176.122 39.2197L182.652 45.8297L180.952 47.5097L174.422 40.8997H174.412Z" fill="black"/>
<path d="M186.104 59.7197C185.154 60.4497 184.154 60.9097 183.134 61.0797C182.104 61.2497 181.124 61.1497 180.174 60.7697C179.234 60.3897 178.414 59.7497 177.714 58.8397C177.014 57.9397 176.614 56.9797 176.494 55.9797C176.374 54.9797 176.534 53.9997 176.964 53.0597C177.394 52.1197 178.084 51.2797 179.044 50.5497C179.994 49.8197 180.994 49.3597 182.014 49.1897C183.034 49.0197 184.024 49.1197 184.964 49.4897C185.904 49.8597 186.714 50.4997 187.414 51.3997C188.114 52.3097 188.524 53.2697 188.644 54.2697C188.764 55.2697 188.614 56.2497 188.184 57.1897C187.754 58.1397 187.064 58.9797 186.114 59.7097L186.104 59.7197ZM184.434 57.5497C185.034 57.0897 185.474 56.5997 185.744 56.0797C186.024 55.5597 186.134 55.0297 186.084 54.4997C186.034 53.9697 185.814 53.4497 185.424 52.9397C185.034 52.4297 184.584 52.0897 184.084 51.8997C183.574 51.7097 183.034 51.6897 182.464 51.8197C181.884 51.9497 181.304 52.2497 180.704 52.7097C180.104 53.1697 179.664 53.6597 179.384 54.1897C179.104 54.7097 178.984 55.2497 179.034 55.7797C179.084 56.3197 179.304 56.8397 179.694 57.3497C180.084 57.8597 180.534 58.1997 181.044 58.3797C181.554 58.5597 182.094 58.5797 182.674 58.4397C183.254 58.2997 183.844 58.0097 184.434 57.5497Z" fill="black"/>
<path d="M195.803 64.76L185.463 70.48L184.213 68.22L194.553 62.5L195.803 64.76Z" fill="black"/>
<path d="M187.604 74.7197L186.594 72.3697L197.464 67.7197L198.464 70.0697L192.724 78.8197L192.414 78.0897L200.434 74.6597L201.434 77.0097L190.564 81.6597L189.564 79.3097L195.294 70.5697L195.604 71.2997L187.604 74.7197Z" fill="black"/>
<path d="M202.734 85.6398L192.554 88.5098L191.854 86.0198L202.034 83.1498L202.734 85.6398ZM200.014 80.2398L202.324 79.5898L204.844 88.5398L202.534 89.1898L200.014 80.2398Z" fill="black"/>
<path d="M194.894 100.37L193.684 92.9598L205.354 91.0498L206.564 98.4598L204.204 98.8498L203.294 93.2898L204.074 93.8898L201.124 94.3698L201.824 98.6698L199.584 99.0398L198.884 94.7398L195.814 95.2398L196.364 94.4198L197.274 99.9798L194.914 100.37H194.894Z" fill="black"/>
<path d="M195.214 104.75L195.094 102.17L206.904 101.64L207.104 106.2C207.164 107.64 206.884 108.76 206.254 109.57C205.624 110.38 204.694 110.82 203.474 110.87C202.704 110.9 202.044 110.77 201.494 110.47C200.934 110.17 200.474 109.7 200.104 109.05L195.504 111.33L195.374 108.51L199.424 106.55L199.334 104.56L195.204 104.74L195.214 104.75ZM204.724 104.32L201.614 104.46L201.704 106.42C201.724 106.98 201.884 107.42 202.174 107.72C202.464 108.02 202.864 108.16 203.364 108.14C203.864 108.12 204.234 107.95 204.484 107.63C204.734 107.32 204.844 106.87 204.814 106.3L204.724 104.32Z" fill="black"/>
<path d="M195.314 114.4L195.534 111.71L206.974 116.86L206.774 119.38L194.654 122.62L194.874 119.88L197.424 119.25L197.734 115.45L195.314 114.41V114.4ZM202.284 117.42L199.834 116.37L199.644 118.69L202.224 118.05C202.434 118 202.644 117.96 202.864 117.91C203.084 117.86 203.264 117.83 203.404 117.82C203.264 117.79 203.094 117.73 202.894 117.66C202.694 117.59 202.484 117.5 202.284 117.41V117.42Z" fill="black"/>
<path d="M193.322 127.97C193.562 126.81 194.022 125.86 194.682 125.12C195.342 124.38 196.172 123.87 197.162 123.6C198.152 123.33 199.252 123.32 200.472 123.58C201.682 123.84 202.682 124.3 203.472 124.97C204.262 125.64 204.822 126.46 205.132 127.43C205.442 128.4 205.482 129.46 205.232 130.6C205.022 131.57 204.672 132.39 204.162 133.08C203.652 133.77 203.032 134.27 202.292 134.62C201.552 134.96 200.742 135.1 199.852 135.03L200.422 132.36C201.042 132.32 201.552 132.09 201.972 131.68C202.382 131.27 202.662 130.72 202.812 130.02C202.942 129.4 202.922 128.83 202.732 128.31C202.542 127.79 202.212 127.37 201.742 127.01C201.262 126.66 200.662 126.41 199.922 126.25C199.202 126.1 198.552 126.09 197.972 126.22C197.392 126.35 196.902 126.61 196.522 127.01C196.142 127.4 195.882 127.91 195.752 128.52C195.602 129.23 195.642 129.86 195.862 130.43C196.082 131 196.472 131.42 197.012 131.69L196.452 134.31C195.622 133.99 194.942 133.52 194.402 132.89C193.862 132.26 193.492 131.52 193.302 130.67C193.112 129.82 193.122 128.92 193.322 127.95V127.97Z" fill="black"/>
<path d="M200.414 142.33L190.414 138.91L191.254 136.46L201.254 139.88L200.414 142.33ZM201.254 136.34L203.524 137.12L200.514 145.91L198.244 145.13L201.254 136.34Z" fill="black"/>
<path d="M34.4153 146.32C34.9253 147.39 35.1353 148.42 35.0653 149.41C34.9953 150.4 34.6353 151.3 34.0153 152.12C33.3953 152.93 32.5253 153.61 31.3953 154.14C30.2753 154.67 29.2053 154.91 28.1653 154.86C27.1253 154.81 26.1953 154.5 25.3553 153.91C24.5153 153.33 23.8453 152.51 23.3453 151.45C22.9153 150.56 22.7053 149.68 22.6953 148.83C22.6953 147.98 22.8653 147.19 23.2453 146.47C23.6253 145.75 24.1853 145.15 24.9353 144.66L26.1053 147.13C25.6353 147.54 25.3653 148.03 25.2853 148.61C25.2053 149.19 25.3153 149.79 25.6253 150.44C25.8953 151.02 26.2653 151.45 26.7253 151.75C27.1853 152.05 27.7053 152.19 28.2953 152.18C28.8853 152.18 29.5253 152 30.2053 151.68C30.8653 151.37 31.3953 150.98 31.7753 150.52C32.1553 150.06 32.3853 149.56 32.4453 149.02C32.5153 148.48 32.4053 147.92 32.1353 147.35C31.8253 146.7 31.4053 146.21 30.8853 145.9C30.3653 145.59 29.8053 145.48 29.2053 145.59L28.0553 143.17C28.9053 142.92 29.7353 142.88 30.5453 143.06C31.3553 143.24 32.0953 143.6 32.7653 144.15C33.4353 144.71 33.9753 145.43 34.4053 146.33L34.4153 146.32Z" fill="black"/>
<path d="M19.4453 141.31L30.6553 137.58L31.4753 140.03L20.2653 143.76L19.4453 141.31ZM31.3353 139.59L29.0653 140.35L26.9253 133.91L29.1953 133.15L31.3353 139.59Z" fill="black"/>
<path d="M16.8047 132.06L28.2847 129.24L28.9047 131.75L17.4247 134.57L16.8047 132.06Z" fill="black"/>
<path d="M27.1554 122.04C27.3254 123.21 27.2154 124.26 26.8454 125.18C26.4754 126.1 25.8754 126.86 25.0354 127.45C24.1954 128.04 23.1654 128.43 21.9354 128.6C20.7154 128.77 19.6154 128.68 18.6354 128.33C17.6554 127.98 16.8554 127.39 16.2354 126.59C15.6154 125.79 15.2154 124.8 15.0554 123.64C14.9154 122.66 14.9654 121.76 15.2154 120.95C15.4654 120.13 15.8754 119.44 16.4454 118.86C17.0154 118.28 17.7354 117.88 18.5954 117.64L18.9754 120.34C18.4054 120.59 18.0054 120.98 17.7554 121.51C17.5054 122.04 17.4354 122.65 17.5354 123.36C17.6254 123.99 17.8454 124.52 18.1954 124.94C18.5454 125.36 19.0054 125.65 19.5654 125.82C20.1254 125.99 20.7854 126.02 21.5354 125.91C22.2654 125.81 22.8754 125.59 23.3854 125.27C23.8854 124.95 24.2554 124.53 24.4754 124.03C24.7054 123.53 24.7654 122.97 24.6854 122.35C24.5854 121.63 24.3354 121.05 23.9254 120.59C23.5254 120.14 23.0154 119.87 22.4154 119.8L22.0354 117.14C22.9154 117.16 23.7254 117.37 24.4454 117.77C25.1654 118.18 25.7654 118.75 26.2354 119.48C26.7054 120.21 27.0054 121.06 27.1454 122.04H27.1554Z" fill="black"/>
<path d="M14.3049 105.35L24.7549 113.27L20.8549 113.29L14.3149 108.4L14.2949 105.35H14.3049ZM14.3449 112.67L26.1649 112.61V115.2L14.3549 115.26V112.67H14.3449ZM21.4449 110.96L19.1649 109.33L26.1249 105.27V108.26L21.4449 110.97V110.96Z" fill="black"/>
<path d="M17.2448 99.4902L14.8848 99.1002L16.4048 89.9302L18.7648 90.3202L17.2448 99.4902ZM17.0748 93.4402L27.5048 95.1702L27.0848 97.7202L16.6548 95.9902L17.0748 93.4402Z" fill="black"/>
<path d="M25.6045 78.98C26.7545 79.32 27.7045 79.86 28.4545 80.59C29.1945 81.32 29.6945 82.18 29.9445 83.16C30.1945 84.14 30.1545 85.19 29.8245 86.29C29.5045 87.38 28.9645 88.27 28.2245 88.96C27.4845 89.65 26.6045 90.09 25.5845 90.29C24.5645 90.5 23.4845 90.43 22.3345 90.09C21.1845 89.75 20.2345 89.21 19.4845 88.48C18.7445 87.75 18.2445 86.89 17.9945 85.92C17.7445 84.94 17.7845 83.91 18.1045 82.81C18.4345 81.71 18.9645 80.81 19.7045 80.13C20.4445 79.44 21.3245 79 22.3445 78.79C23.3645 78.58 24.4445 78.65 25.6045 78.99V78.98ZM24.8345 81.6C24.1145 81.39 23.4545 81.32 22.8645 81.4C22.2845 81.48 21.7845 81.7 21.3845 82.05C20.9845 82.4 20.6845 82.88 20.5045 83.5C20.3245 84.11 20.3045 84.68 20.4545 85.2C20.6045 85.72 20.8945 86.17 21.3445 86.56C21.7945 86.95 22.3745 87.25 23.1045 87.46C23.8345 87.67 24.4845 87.74 25.0745 87.66C25.6645 87.58 26.1645 87.36 26.5645 87C26.9645 86.64 27.2645 86.16 27.4445 85.54C27.6245 84.93 27.6445 84.36 27.4845 83.85C27.3245 83.34 27.0345 82.88 26.5745 82.49C26.1245 82.1 25.5445 81.8 24.8245 81.59L24.8345 81.6Z" fill="black"/>
<path d="M23.9945 68.1602L34.7045 73.1702L33.6045 75.5102L22.8945 70.5002L23.9945 68.1602Z" fill="black"/>
<path d="M36.8741 68.9502L35.5641 71.1402L25.4141 65.0702L26.7241 62.8802L37.1741 62.3902L36.7641 63.0802L29.2741 58.6002L30.5841 56.4102L40.7341 62.4702L39.4241 64.6602L28.9841 65.1602L29.3941 64.4702L36.8641 68.9402L36.8741 68.9502Z" fill="black"/>
<path d="M34.0441 55.6701L32.1641 54.1901L37.9241 46.8901L39.8041 48.3801L34.0441 55.6701ZM36.8241 50.2901L45.1241 56.8401L43.5241 58.8701L35.2241 52.3201L36.8241 50.2901Z" fill="black"/>
<path d="M53.3558 47.9904L48.0758 53.3204L39.6758 45.0004L44.9558 39.6704L46.6558 41.3604L42.6858 45.3604L42.7158 44.3804L44.8358 46.4804L47.9058 43.3804L49.5158 44.9804L46.4458 48.0804L48.6558 50.2704L47.6758 50.3104L51.6458 46.3104L53.3458 48.0004L53.3558 47.9904Z" fill="black"/>
<path d="M56.7042 45.1602L54.6842 46.7702L47.3242 37.5202L50.8942 34.6802C52.0142 33.7802 53.0942 33.3502 54.1242 33.3902C55.1542 33.4202 56.0442 33.9203 56.8042 34.8803C57.2842 35.4803 57.5642 36.0903 57.6442 36.7203C57.7242 37.3503 57.6142 38.0002 57.3142 38.6802L61.8642 41.0603L59.6542 42.8202L55.6942 40.6902L54.1342 41.9302L56.7142 45.1702L56.7042 45.1602ZM50.7842 37.7203L52.7242 40.1602L54.2642 38.9402C54.7042 38.5902 54.9642 38.2102 55.0342 37.7902C55.1042 37.3802 54.9842 36.9803 54.6742 36.5803C54.3642 36.1903 54.0042 35.9903 53.6042 35.9703C53.2042 35.9603 52.7842 36.1302 52.3342 36.4802L50.7842 37.7102V37.7203Z" fill="black"/>
<path d="M64.4752 39.4002L62.1652 40.8002L59.6152 28.5102L61.7752 27.2002L71.5152 35.1102L69.1652 36.5402L67.1552 34.8402L63.8952 36.8302L64.4652 39.4002H64.4752ZM62.8252 31.9902L63.4152 34.5902L65.4052 33.3802L63.3652 31.6602C63.2052 31.5202 63.0452 31.3802 62.8752 31.2302C62.7052 31.0802 62.5852 30.9502 62.4952 30.8502C62.5452 30.9802 62.6052 31.1502 62.6652 31.3602C62.7252 31.5702 62.7752 31.7802 62.8252 32.0002V31.9902Z" fill="black"/>
<path d="M76.605 33.0604C75.525 33.5404 74.495 33.7304 73.505 33.6304C72.515 33.5304 71.625 33.1604 70.825 32.5204C70.025 31.8804 69.375 30.9904 68.865 29.8504C68.365 28.7204 68.145 27.6404 68.225 26.6004C68.295 25.5604 68.635 24.6404 69.235 23.8104C69.835 22.9904 70.675 22.3404 71.745 21.8604C72.645 21.4604 73.525 21.2604 74.375 21.2704C75.225 21.2804 76.005 21.4804 76.715 21.8804C77.425 22.2704 78.015 22.8504 78.485 23.6104L75.985 24.7204C75.585 24.2404 75.105 23.9604 74.525 23.8604C73.955 23.7704 73.345 23.8604 72.685 24.1504C72.105 24.4104 71.655 24.7704 71.355 25.2204C71.055 25.6704 70.895 26.1904 70.885 26.7804C70.885 27.3704 71.035 28.0104 71.335 28.7004C71.635 29.3704 72.005 29.9004 72.455 30.3004C72.905 30.6904 73.405 30.9304 73.945 31.0104C74.485 31.0904 75.045 31.0104 75.615 30.7404C76.275 30.4504 76.775 30.0404 77.095 29.5304C77.425 29.0204 77.535 28.4604 77.445 27.8604L79.895 26.7704C80.125 27.6204 80.145 28.4604 79.945 29.2704C79.755 30.0804 79.365 30.8104 78.795 31.4604C78.225 32.1104 77.485 32.6404 76.575 33.0404L76.605 33.0604Z" fill="black"/>
<path d="M78.7254 21.7202L78.0254 19.4302L86.9154 16.7002L87.6154 18.9902L78.7254 21.7202ZM84.0754 18.8802L87.1754 28.9902L84.7054 29.7502L81.6054 19.6402L84.0754 18.8802Z" fill="black"/>
<path d="M178.145 161.16C178.855 160.22 179.665 159.55 180.585 159.15C181.505 158.75 182.465 158.65 183.465 158.82C184.475 158.99 185.475 159.45 186.475 160.2C187.465 160.94 188.175 161.78 188.615 162.72C189.055 163.66 189.205 164.64 189.085 165.65C188.955 166.66 188.545 167.63 187.835 168.57C187.235 169.36 186.565 169.96 185.815 170.36C185.065 170.76 184.285 170.97 183.475 170.97C182.665 170.97 181.865 170.75 181.085 170.32L182.725 168.14C183.305 168.36 183.865 168.37 184.415 168.18C184.965 167.98 185.445 167.6 185.875 167.03C186.255 166.52 186.475 165.99 186.525 165.45C186.575 164.91 186.455 164.38 186.175 163.86C185.895 163.34 185.445 162.86 184.845 162.4C184.255 161.96 183.675 161.68 183.085 161.55C182.505 161.42 181.955 161.46 181.435 161.65C180.925 161.84 180.475 162.19 180.105 162.7C179.665 163.28 179.435 163.87 179.395 164.48C179.355 165.09 179.525 165.63 179.895 166.11L178.285 168.26C177.665 167.63 177.255 166.91 177.025 166.11C176.805 165.31 176.785 164.49 176.965 163.64C177.145 162.79 177.535 161.97 178.135 161.18L178.145 161.16Z" fill="black"/>
<path d="M173.614 167.01L175.344 168.67L170.634 173.56L168.904 171.9L173.614 167.01ZM180.654 176.74L172.144 168.54L173.934 166.68L182.444 174.88L180.654 176.74Z" fill="black"/>
<path d="M173.685 183.38L165.855 174.52L167.795 172.81L175.625 181.67L173.685 183.38Z" fill="black"/>
<path d="M160.014 178.86C160.974 178.17 161.944 177.77 162.934 177.67C163.924 177.57 164.874 177.75 165.784 178.22C166.694 178.69 167.514 179.42 168.244 180.44C168.964 181.44 169.394 182.46 169.534 183.49C169.674 184.52 169.534 185.5 169.104 186.42C168.684 187.35 167.994 188.15 167.044 188.84C166.244 189.42 165.424 189.79 164.584 189.95C163.754 190.11 162.944 190.07 162.164 189.83C161.384 189.59 160.694 189.14 160.084 188.49L162.304 186.9C162.794 187.28 163.324 187.47 163.904 187.44C164.484 187.42 165.064 187.2 165.644 186.78C166.164 186.41 166.524 185.97 166.734 185.46C166.944 184.96 166.984 184.41 166.874 183.84C166.754 183.26 166.484 182.66 166.044 182.05C165.614 181.45 165.144 181.01 164.624 180.71C164.104 180.42 163.574 180.28 163.024 180.32C162.474 180.35 161.944 180.55 161.434 180.92C160.844 181.34 160.444 181.84 160.224 182.41C160.014 182.98 160.004 183.55 160.224 184.11L158.044 185.68C157.644 184.89 157.464 184.08 157.484 183.25C157.504 182.42 157.734 181.63 158.164 180.87C158.594 180.11 159.204 179.45 160.014 178.87V178.86Z" fill="black"/>
<path d="M152.845 189.07L152.455 191.85L145.625 187.57L148.265 186.17L152.845 189.07ZM151.195 197.99L153.355 185.05L155.185 188.49L153.895 196.55L151.205 197.98L151.195 197.99ZM157.655 194.56L152.115 184.12L154.405 182.91L159.945 193.35L157.655 194.56Z" fill="black"/>
<path d="M144.644 198.11L145.394 200.38L136.564 203.29L135.814 201.01L144.644 198.1V198.11ZM139.364 201.07L136.054 191.03L138.514 190.22L141.824 200.26L139.364 201.07Z" fill="black"/>
<path d="M122.595 200.22C122.365 199.04 122.395 197.95 122.695 196.95C122.995 195.95 123.525 195.11 124.285 194.44C125.035 193.76 125.985 193.31 127.115 193.09C128.235 192.87 129.265 192.93 130.215 193.27C131.165 193.61 131.965 194.18 132.625 194.98C133.275 195.78 133.725 196.78 133.955 197.96C134.185 199.14 134.155 200.23 133.855 201.23C133.555 202.23 133.025 203.06 132.275 203.74C131.525 204.41 130.595 204.86 129.475 205.08C128.345 205.3 127.305 205.25 126.355 204.91C125.405 204.57 124.595 204 123.945 203.2C123.285 202.4 122.835 201.41 122.605 200.22H122.595ZM125.275 199.69C125.425 200.43 125.665 201.04 126.015 201.52C126.355 202 126.785 202.34 127.285 202.53C127.785 202.72 128.345 202.76 128.975 202.64C129.605 202.52 130.115 202.27 130.505 201.9C130.895 201.53 131.165 201.06 131.295 200.48C131.435 199.9 131.425 199.25 131.275 198.51C131.125 197.77 130.885 197.15 130.535 196.67C130.185 196.18 129.765 195.84 129.255 195.65C128.755 195.46 128.185 195.42 127.555 195.55C126.925 195.67 126.425 195.92 126.035 196.3C125.645 196.68 125.385 197.15 125.255 197.73C125.115 198.31 125.125 198.97 125.265 199.7L125.275 199.69Z" fill="black"/>
<path d="M113.765 206.68L113.225 194.87L115.805 194.75L116.345 206.56L113.765 206.68Z" fill="black"/>
<path d="M108.485 194.91L111.035 195.05L110.375 206.85L107.825 206.71L102.535 197.68L103.335 197.72L102.845 206.43L100.295 206.29L100.955 194.49L103.505 194.63L108.795 203.64L107.995 203.6L108.485 194.91Z" fill="black"/>
<path d="M98.0253 203.58L97.5853 205.93L88.4453 204.22L88.8853 201.87L98.0253 203.58ZM91.9753 203.61L93.9253 193.22L96.4653 193.7L94.5153 204.09L91.9753 203.61Z" fill="black"/>
<path d="M82.2649 190.04L89.4449 192.24L85.9749 203.54L78.7949 201.33L79.4949 199.04L84.8849 200.7L84.0049 201.13L84.8849 198.27L80.7149 196.99L81.3849 194.82L85.5549 196.1L86.4649 193.12L86.9549 193.97L81.5649 192.31L82.2649 190.02V190.04Z" fill="black"/>
<path d="M78.2045 188.379L80.5745 189.419L75.8045 200.229L71.6245 198.389C70.3045 197.809 69.4245 197.059 68.9845 196.129C68.5345 195.209 68.5645 194.179 69.0545 193.059C69.3645 192.359 69.7745 191.819 70.2945 191.459C70.8145 191.089 71.4445 190.889 72.1845 190.839V185.709L74.7645 186.849L74.7145 191.349L76.5445 192.159L78.2145 188.369L78.2045 188.379ZM74.3545 197.089L75.6145 194.239L73.8145 193.449C73.2945 193.219 72.8445 193.169 72.4445 193.299C72.0445 193.429 71.7445 193.719 71.5445 194.179C71.3445 194.639 71.3245 195.049 71.5045 195.409C71.6845 195.769 72.0245 196.069 72.5545 196.299L74.3645 197.099L74.3545 197.089Z" fill="black"/>
<path d="M69.5148 184.2L71.8248 185.59L62.1248 193.55L59.9648 192.25L62.4448 179.95L64.7948 181.36L64.2248 183.92L67.4948 185.88L69.5048 184.18L69.5148 184.2ZM63.7248 189.1L65.7448 187.37L63.7448 186.17L63.1748 188.77C63.1248 188.98 63.0748 189.19 63.0148 189.4C62.9648 189.62 62.9048 189.79 62.8548 189.92C62.9448 189.81 63.0648 189.68 63.2248 189.54C63.3848 189.39 63.5448 189.25 63.7248 189.1Z" fill="black"/>
<path d="M58.2345 176.379C59.1645 177.109 59.8145 177.939 60.1845 178.859C60.5545 179.779 60.6445 180.749 60.4445 181.749C60.2445 182.749 59.7645 183.749 58.9945 184.719C58.2245 185.689 57.3745 186.379 56.4145 186.799C55.4645 187.219 54.4845 187.349 53.4745 187.199C52.4645 187.049 51.5045 186.609 50.5845 185.879C49.8045 185.269 49.2245 184.579 48.8445 183.819C48.4545 183.059 48.2745 182.279 48.2945 181.459C48.3145 180.649 48.5445 179.859 49.0045 179.089L51.1445 180.779C50.9045 181.349 50.8845 181.919 51.0645 182.469C51.2445 183.019 51.6145 183.519 52.1745 183.959C52.6745 184.359 53.1945 184.579 53.7345 184.649C54.2745 184.709 54.8145 184.609 55.3345 184.339C55.8645 184.069 56.3545 183.639 56.8245 183.049C57.2845 182.469 57.5745 181.889 57.7145 181.309C57.8545 180.729 57.8345 180.179 57.6545 179.659C57.4745 179.139 57.1345 178.689 56.6445 178.299C56.0745 177.849 55.4845 177.599 54.8845 177.549C54.2845 177.499 53.7345 177.649 53.2445 178.009L51.1445 176.349C51.7945 175.749 52.5245 175.349 53.3245 175.139C54.1345 174.929 54.9545 174.929 55.7945 175.139C56.6345 175.349 57.4445 175.749 58.2245 176.369L58.2345 176.379Z" fill="black"/>
<path d="M47.2146 179.76L45.5146 181.45L38.9746 174.85L40.6746 173.16L47.2146 179.76ZM42.2146 176.35L49.7246 168.91L51.5446 170.75L44.0346 178.19L42.2146 176.35Z" fill="black"/>
<path d="M192.653 155.16C194.608 155.16 196.193 153.575 196.193 151.62C196.193 149.665 194.608 148.08 192.653 148.08C190.698 148.08 189.113 149.665 189.113 151.62C189.113 153.575 190.698 155.16 192.653 155.16Z" fill="black"/>
<path d="M36.415 166.75C38.3701 166.75 39.955 165.165 39.955 163.21C39.955 161.255 38.3701 159.67 36.415 159.67C34.4599 159.67 32.875 161.255 32.875 163.21C32.875 165.165 34.4599 166.75 36.415 166.75Z" fill="black"/>
<path d="M104.835 23.4999C106.79 23.4999 108.375 21.915 108.375 19.9599C108.375 18.0048 106.79 16.4199 104.835 16.4199C102.88 16.4199 101.295 18.0048 101.295 19.9599C101.295 21.915 102.88 23.4999 104.835 23.4999Z" fill="black"/>
</g>
<defs>
<clipPath id="clip0_521_312">
<rect width="220.54" height="220.54" fill="white" transform="translate(0.494141)"/>
</clipPath>
</defs>
</svg>
