<svg width="228" height="52" viewBox="0 0 228 52" fill="none" xmlns="http://www.w3.org/2000/svg">
<path d="M1.41211 4.39606C1.29814 3.79255 1.74225 3.23861 2.34571 3.21522C12.5824 2.8185 53.7586 1.31882 68.3569 2.24279C85.1784 3.30747 161.839 4.22016 180.821 3.30622C195.934 2.57852 217.305 3.0153 225.258 3.2196C225.962 3.23769 226.642 4.10111 226.393 4.99614C225.527 8.11291 224.648 13.4338 225.715 20.4493C227.098 29.547 225.375 44.2737 224.707 49.2835C224.644 49.7525 224.244 50.1088 223.743 50.1102L2.10273 50.714C1.53028 50.7155 1.07335 50.2371 1.10119 49.6654L2.89972 12.7189C2.91117 12.4836 2.89487 12.2478 2.85116 12.0163L1.41211 4.39606Z" fill="white" stroke="white" stroke-width="2" stroke-linejoin="round"/>
<path d="M71.28 18.97V33.77H68.04V18.97H71.28ZM74.02 27.75H70.24V25.03H73.86C74.4467 25.03 74.8933 24.89 75.2 24.61C75.5067 24.33 75.66 23.9234 75.66 23.39C75.66 22.87 75.5067 22.4767 75.2 22.21C74.8933 21.9434 74.4467 21.81 73.86 21.81H70.46V18.97H74.2C75.6933 18.97 76.86 19.3367 77.7 20.07C78.5533 20.8034 78.98 21.8034 78.98 23.07C78.98 23.9367 78.7667 24.67 78.34 25.27C77.9133 25.87 77.2933 26.2967 76.48 26.55V26.27C77.3467 26.4567 78.0067 26.8434 78.46 27.43C78.9267 28.0167 79.16 28.77 79.16 29.69C79.16 30.5567 78.9667 31.2967 78.58 31.91C78.2067 32.5234 77.6467 32.99 76.9 33.31C76.1667 33.6167 75.2667 33.77 74.2 33.77H70.46V30.93H74.02C74.62 30.93 75.0733 30.7967 75.38 30.53C75.6867 30.25 75.84 29.8367 75.84 29.29C75.84 28.7834 75.68 28.4034 75.36 28.15C75.0533 27.8834 74.6067 27.75 74.02 27.75ZM80.4408 28.21V18.97H83.6808V27.99C83.6808 28.9234 83.9274 29.6367 84.4208 30.13C84.9141 30.6234 85.6141 30.87 86.5208 30.87C87.4408 30.87 88.1474 30.6167 88.6408 30.11C89.1474 29.6034 89.4008 28.8967 89.4008 27.99V18.97H92.6408V28.21C92.6408 29.3834 92.3874 30.4034 91.8808 31.27C91.3874 32.1367 90.6808 32.81 89.7608 33.29C88.8408 33.77 87.7608 34.01 86.5208 34.01C85.2941 34.01 84.2208 33.7767 83.3008 33.31C82.3941 32.83 81.6874 32.1567 81.1808 31.29C80.6874 30.41 80.4408 29.3834 80.4408 28.21ZM98.4789 28.15L93.4789 18.97H97.0989L99.5789 23.77C99.6989 23.9967 99.7989 24.21 99.8789 24.41C99.9722 24.5967 100.059 24.7834 100.139 24.97C100.206 24.85 100.266 24.73 100.319 24.61C100.372 24.4767 100.432 24.3434 100.499 24.21C100.566 24.0634 100.639 23.91 100.719 23.75L103.199 18.97H106.719L101.719 28.15V33.77H98.4789V28.15ZM115.345 33.77H112.145V18.97H115.345L122.585 29.89H121.585V18.97H124.785V33.77H121.585L114.345 22.87H115.345V33.77ZM140.747 26.35C140.747 27.8567 140.441 29.19 139.827 30.35C139.214 31.4967 138.361 32.3967 137.267 33.05C136.174 33.69 134.907 34.01 133.467 34.01C132.041 34.01 130.781 33.69 129.687 33.05C128.607 32.3967 127.761 31.4967 127.147 30.35C126.547 29.2034 126.247 27.8767 126.247 26.37C126.247 24.8634 126.554 23.5367 127.167 22.39C127.781 21.23 128.627 20.33 129.707 19.69C130.801 19.0367 132.061 18.71 133.487 18.71C134.927 18.71 136.187 19.0367 137.267 19.69C138.361 20.33 139.214 21.2234 139.827 22.37C140.441 23.5167 140.747 24.8434 140.747 26.35ZM137.327 26.35C137.327 25.4034 137.174 24.5967 136.867 23.93C136.561 23.25 136.121 22.73 135.547 22.37C134.987 22.01 134.307 21.83 133.507 21.83C132.707 21.83 132.021 22.01 131.447 22.37C130.874 22.73 130.434 23.25 130.127 23.93C129.821 24.5967 129.667 25.4034 129.667 26.35C129.667 27.2967 129.821 28.11 130.127 28.79C130.434 29.47 130.874 29.99 131.447 30.35C132.021 30.71 132.707 30.89 133.507 30.89C134.307 30.89 134.987 30.71 135.547 30.35C136.121 29.9767 136.561 29.45 136.867 28.77C137.174 28.09 137.327 27.2834 137.327 26.35ZM144.799 33.77L140.359 18.97H143.739L145.679 25.39C145.813 25.83 145.939 26.2967 146.059 26.79C146.179 27.27 146.299 27.8767 146.419 28.61C146.539 27.8767 146.659 27.27 146.779 26.79C146.899 26.31 147.026 25.8434 147.159 25.39L148.979 18.97H152.599L154.339 25.39C154.459 25.8434 154.579 26.3167 154.699 26.81C154.819 27.3034 154.946 27.9034 155.079 28.61C155.226 27.8634 155.359 27.2567 155.479 26.79C155.599 26.31 155.726 25.8567 155.859 25.43L157.839 18.97H161.139L156.619 33.77H153.459L150.759 24.05L147.979 33.77H144.799Z" fill="black"/>
</svg>
