<svg width="229" height="51" viewBox="0 0 229 51" fill="none" xmlns="http://www.w3.org/2000/svg">
<path d="M1.91211 3.63581C1.79814 3.0323 2.24225 2.47836 2.84571 2.45497C13.0824 2.05824 54.2586 0.558567 68.8569 1.48254C85.6784 2.54721 162.339 3.45991 181.321 2.54596C196.434 1.81827 217.805 2.25504 225.758 2.45934C226.462 2.47744 227.142 3.34086 226.893 4.23589C226.027 7.35266 225.148 12.6735 226.215 19.689C227.598 28.7867 225.875 43.5135 225.207 48.5232C225.144 48.9922 224.744 49.3485 224.243 49.3499L2.60273 49.9537C2.03028 49.9553 1.57335 49.4769 1.60119 48.9051L3.39972 11.9586C3.41117 11.7233 3.39487 11.4875 3.35116 11.2561L1.91211 3.63581Z" stroke="white" stroke-width="2" stroke-linejoin="round"/>
<path d="M71.78 18.2098V33.0098H68.54V18.2098H71.78ZM74.52 26.9898H70.74V24.2698H74.36C74.9467 24.2698 75.3933 24.1298 75.7 23.8498C76.0067 23.5698 76.16 23.1631 76.16 22.6298C76.16 22.1098 76.0067 21.7164 75.7 21.4498C75.3933 21.1831 74.9467 21.0498 74.36 21.0498H70.96V18.2098H74.7C76.1933 18.2098 77.36 18.5764 78.2 19.3098C79.0533 20.0431 79.48 21.0431 79.48 22.3098C79.48 23.1764 79.2667 23.9098 78.84 24.5098C78.4133 25.1098 77.7933 25.5364 76.98 25.7898V25.5098C77.8467 25.6964 78.5067 26.0831 78.96 26.6698C79.4267 27.2564 79.66 28.0098 79.66 28.9298C79.66 29.7964 79.4667 30.5364 79.08 31.1498C78.7067 31.7631 78.1467 32.2298 77.4 32.5498C76.6667 32.8564 75.7667 33.0098 74.7 33.0098H70.96V30.1698H74.52C75.12 30.1698 75.5733 30.0364 75.88 29.7698C76.1867 29.4898 76.34 29.0764 76.34 28.5298C76.34 28.0231 76.18 27.6431 75.86 27.3898C75.5533 27.1231 75.1067 26.9898 74.52 26.9898ZM80.9408 27.4498V18.2098H84.1808V27.2298C84.1808 28.1631 84.4274 28.8764 84.9208 29.3698C85.4141 29.8631 86.1141 30.1098 87.0208 30.1098C87.9408 30.1098 88.6474 29.8564 89.1408 29.3498C89.6474 28.8431 89.9008 28.1364 89.9008 27.2298V18.2098H93.1408V27.4498C93.1408 28.6231 92.8874 29.6431 92.3808 30.5098C91.8874 31.3764 91.1808 32.0498 90.2608 32.5298C89.3408 33.0098 88.2608 33.2498 87.0208 33.2498C85.7941 33.2498 84.7208 33.0164 83.8008 32.5498C82.8941 32.0698 82.1874 31.3964 81.6808 30.5298C81.1874 29.6498 80.9408 28.6231 80.9408 27.4498ZM98.9789 27.3898L93.9789 18.2098H97.5989L100.079 23.0098C100.199 23.2364 100.299 23.4498 100.379 23.6498C100.472 23.8364 100.559 24.0231 100.639 24.2098C100.706 24.0898 100.766 23.9698 100.819 23.8498C100.872 23.7164 100.932 23.5831 100.999 23.4498C101.066 23.3031 101.139 23.1498 101.219 22.9898L103.699 18.2098H107.219L102.219 27.3898V33.0098H98.9789V27.3898ZM115.845 33.0098H112.645V18.2098H115.845L123.085 29.1298H122.085V18.2098H125.285V33.0098H122.085L114.845 22.1098H115.845V33.0098ZM141.247 25.5898C141.247 27.0964 140.941 28.4298 140.327 29.5898C139.714 30.7364 138.861 31.6364 137.767 32.2898C136.674 32.9298 135.407 33.2498 133.967 33.2498C132.541 33.2498 131.281 32.9298 130.187 32.2898C129.107 31.6364 128.261 30.7364 127.647 29.5898C127.047 28.4431 126.747 27.1164 126.747 25.6098C126.747 24.1031 127.054 22.7764 127.667 21.6298C128.281 20.4698 129.127 19.5698 130.207 18.9298C131.301 18.2764 132.561 17.9498 133.987 17.9498C135.427 17.9498 136.687 18.2764 137.767 18.9298C138.861 19.5698 139.714 20.4631 140.327 21.6098C140.941 22.7564 141.247 24.0831 141.247 25.5898ZM137.827 25.5898C137.827 24.6431 137.674 23.8364 137.367 23.1698C137.061 22.4898 136.621 21.9698 136.047 21.6098C135.487 21.2498 134.807 21.0698 134.007 21.0698C133.207 21.0698 132.521 21.2498 131.947 21.6098C131.374 21.9698 130.934 22.4898 130.627 23.1698C130.321 23.8364 130.167 24.6431 130.167 25.5898C130.167 26.5364 130.321 27.3498 130.627 28.0298C130.934 28.7098 131.374 29.2298 131.947 29.5898C132.521 29.9498 133.207 30.1298 134.007 30.1298C134.807 30.1298 135.487 29.9498 136.047 29.5898C136.621 29.2164 137.061 28.6898 137.367 28.0098C137.674 27.3298 137.827 26.5231 137.827 25.5898ZM145.299 33.0098L140.859 18.2098H144.239L146.179 24.6298C146.313 25.0698 146.439 25.5364 146.559 26.0298C146.679 26.5098 146.799 27.1164 146.919 27.8498C147.039 27.1164 147.159 26.5098 147.279 26.0298C147.399 25.5498 147.526 25.0831 147.659 24.6298L149.479 18.2098H153.099L154.839 24.6298C154.959 25.0831 155.079 25.5564 155.199 26.0498C155.319 26.5431 155.446 27.1431 155.579 27.8498C155.726 27.1031 155.859 26.4964 155.979 26.0298C156.099 25.5498 156.226 25.0964 156.359 24.6698L158.339 18.2098H161.639L157.119 33.0098H153.959L151.259 23.2898L148.479 33.0098H145.299Z" fill="white"/>
</svg>
