<svg width="51" height="52" viewBox="0 0 51 52" fill="none" xmlns="http://www.w3.org/2000/svg">
<path d="M50 26.27C50 33.5052 46.2137 39.3711 41.045 43.9296C36.6349 47.8191 31.6148 50.77 25.5 50.77C22.7688 50.77 20.144 50.3235 17.6933 49.5003C14.8268 48.5374 12.1963 47.0583 9.91254 45.1728C9.27541 44.6468 8.84331 44.0773 8.412 43.415C8.29745 43.2392 8.1783 43.0486 8.05276 42.8477C7.7241 42.3219 7.35154 41.7259 6.90251 41.1398C6.46407 40.5676 5.83244 39.9755 5.26258 39.4414C5.14124 39.3277 5.0227 39.2166 4.90941 39.1088C4.2016 38.4357 3.66105 37.8629 3.39626 37.3439C1.71328 34.0447 1 30.3199 1 26.27C1 12.739 11.969 1.77002 25.5 1.77002C27.1308 1.77002 29.1443 1.9953 30.7013 2.30371C31.2548 2.41334 31.6649 2.66887 32.1788 3.04805C32.2427 3.09517 32.3092 3.14518 32.3786 3.19729C32.8436 3.54677 33.4346 3.99096 34.1904 4.29393C34.8753 4.56848 35.64 4.69246 36.272 4.79494C36.3682 4.81055 36.4614 4.82565 36.5507 4.84072C37.2941 4.96606 37.8403 5.09427 38.2594 5.35049C39.4801 6.09667 40.6305 6.94679 41.6984 7.8886C42.0093 8.16277 42.2062 8.50942 42.4526 9.02382C42.478 9.07672 42.5041 9.13213 42.5313 9.18968C42.7492 9.65137 43.0317 10.2501 43.4843 10.7873C43.9079 11.29 44.4866 11.7293 44.9599 12.0886C45.0268 12.1394 45.0915 12.1885 45.1534 12.236C45.7169 12.6684 46.1057 13.0046 46.3214 13.3515C46.8306 14.1703 47.2927 15.0212 47.7041 15.9005C49.1768 19.0484 50 22.5617 50 26.27Z" fill="white" stroke="white" stroke-width="2" stroke-linejoin="round"/>
<path fill-rule="evenodd" clip-rule="evenodd" d="M34.413 14.7511C34.7275 14.6187 35.0718 14.573 35.4099 14.6188C35.7481 14.6647 36.0677 14.8003 36.3357 15.0116C36.6037 15.2229 36.8101 15.5021 36.9335 15.8203C37.0569 16.1384 37.0928 16.4838 37.0374 16.8205L34.1508 34.3294C33.8708 36.0183 32.0177 36.9869 30.4688 36.1456C29.1732 35.4418 27.2488 34.3574 25.5179 33.226C24.6525 32.6596 22.0014 30.846 22.3272 29.5554C22.6072 28.452 27.0617 24.3054 29.6072 21.8402C30.6063 20.8716 30.1506 20.3129 28.9708 21.2038C26.041 23.4158 21.337 26.7796 19.7817 27.7265C18.4097 28.5614 17.6945 28.704 16.8392 28.5614C15.2788 28.3018 13.8317 27.8996 12.6506 27.4096C11.0546 26.7478 11.1323 24.5536 12.6494 23.9147L34.413 14.7511Z" fill="black"/>
</svg>
