<svg width="52" height="51" viewBox="0 0 52 51" fill="none" xmlns="http://www.w3.org/2000/svg">
<path d="M50.5 25.5098C50.5 32.7449 46.7137 38.6108 41.545 43.1694C37.1349 47.0588 32.1148 50.0098 26 50.0098C23.2688 50.0098 20.644 49.5632 18.1933 48.74C15.3268 47.7771 12.6963 46.298 10.4125 44.4126C9.77541 43.8866 9.34331 43.317 8.912 42.6548C8.79745 42.4789 8.6783 42.2883 8.55276 42.0875C8.2241 41.5617 7.85154 40.9657 7.40251 40.3796C6.96407 39.8073 6.33244 39.2153 5.76258 38.6812C5.64124 38.5674 5.5227 38.4563 5.40941 38.3486C4.7016 37.6754 4.16105 37.1027 3.89626 36.5836C2.21328 33.2845 1.5 29.5597 1.5 25.5098C1.5 11.9788 12.469 1.00977 26 1.00977C27.6308 1.00977 29.6443 1.23504 31.2013 1.54345C31.7548 1.65308 32.1649 1.90861 32.6788 2.2878C32.7427 2.33492 32.8092 2.38492 32.8786 2.43704C33.3436 2.78651 33.9346 3.2307 34.6904 3.53367C35.3753 3.80823 36.14 3.93221 36.772 4.03469C36.8682 4.05029 36.9614 4.0654 37.0507 4.08046C37.7941 4.2058 38.3403 4.33402 38.7594 4.59023C39.9801 5.33641 41.1305 6.18654 42.1984 7.12834C42.5093 7.40251 42.7062 7.74916 42.9526 8.26357C42.978 8.31647 43.0041 8.37188 43.0313 8.42942C43.2492 8.89111 43.5317 9.48989 43.9843 10.027C44.4079 10.5297 44.9866 10.9691 45.4599 11.3284C45.5268 11.3791 45.5915 11.4283 45.6534 11.4758C46.2169 11.9082 46.6057 12.2443 46.8214 12.5912C47.3306 13.41 47.7927 14.2609 48.2041 15.1402C49.6768 18.2881 50.5 21.8014 50.5 25.5098Z" stroke="white" stroke-width="2" stroke-linejoin="round"/>
<path fill-rule="evenodd" clip-rule="evenodd" d="M34.913 13.9908C35.2275 13.8584 35.5718 13.8128 35.9099 13.8586C36.2481 13.9044 36.5677 14.04 36.8357 14.2513C37.1037 14.4626 37.3101 14.7419 37.4335 15.06C37.5569 15.3781 37.5928 15.7236 37.5374 16.0603L34.6508 33.5692C34.3708 35.2581 32.5177 36.2266 30.9688 35.3854C29.6732 34.6815 27.7488 33.5972 26.0179 32.4657C25.1525 31.8994 22.5014 30.0857 22.8272 28.7952C23.1072 27.6917 27.5617 23.5452 30.1072 21.0799C31.1063 20.1114 30.6506 19.5526 29.4708 20.4435C26.541 22.6555 21.837 26.0194 20.2817 26.9663C18.9097 27.8012 18.1945 27.9437 17.3392 27.8012C15.7788 27.5415 14.3317 27.1394 13.1506 26.6494C11.5546 25.9875 11.6323 23.7934 13.1494 23.1544L34.913 13.9908Z" fill="white"/>
</svg>
