<svg width="485" height="151" viewBox="0 0 485 151" fill="none" xmlns="http://www.w3.org/2000/svg">
<path d="M443.763 4.43457L484.403 9.79849C466.502 34.0355 451.02 57.6764 437.473 80.7214C446.908 96.2172 466.018 124.862 484.403 144.927L433.786 149.26C427.34 130.354 411.831 111.117 398.043 91.0519L399.01 147.671L353.612 149.26C351.919 102.376 351.193 62.2457 351.193 29.2675L351.435 5.03056L399.978 5.62655C398.527 25.0956 398.043 46.5513 398.043 70.3909L443.763 4.43457Z" fill="white"/>
<path d="M337.807 1.45452C338.291 45.1605 337.081 92.6411 334.179 144.294C332.485 144.294 329.824 144.492 326.438 144.492C322.809 144.492 317.729 144.691 310.956 144.691C304.182 144.691 297.893 144.691 292.087 144.691C274.428 111.713 260.881 82.112 251.447 55.491C250.238 88.6679 250.48 119.461 251.931 148.068L206.414 149.26C205.688 88.8665 204.857 43.2072 209.075 5.22913C225.524 5.03047 246.707 3.86168 263.157 3.06703L298.619 84.6946C299.102 56.4844 299.344 28.6714 299.344 1.25586H307.569C309.02 1.25586 311.198 1.45452 313.617 1.45452C316.036 1.45452 317.729 1.45452 318.697 1.45452H337.807Z" fill="white"/>
<path d="M197.332 2.05078C195.881 35.0289 193.137 55.4915 192.895 63.2394C192.169 86.8803 191.686 106.151 191.444 120.852L191.202 143.301L150.078 141.184L150.32 122.044V109.727V105.952C150.32 104.76 150.078 103.965 150.078 103.171C150.078 102.376 150.078 101.979 150.078 101.78L153.306 3.64009L197.332 2.05078Z" fill="white"/>
<path fill-rule="evenodd" clip-rule="evenodd" d="M139.159 73.896C138.622 84.8832 137.008 94.853 134.32 103.806C131.631 112.351 127.598 120.49 121.682 128.222C116.305 135.343 109.045 140.836 99.9033 144.702C90.4926 148.772 79.7375 150.806 67.3692 151.01C51.2365 151.01 37.7927 147.958 27.5754 141.447C17.358 135.343 10.3672 126.797 6.0652 116.217C2.03204 106.858 0.1499 94.6496 0.687654 79.7965C0.687654 65.3504 3.37642 51.9216 8.48509 39.7137C12.7871 28.3196 20.5846 18.9601 31.8774 11.2284C42.6325 3.9036 55.8075 0.241211 71.9401 0.241211C95.0635 0.241211 112.272 6.75213 123.564 19.774C134.857 33.2027 139.966 51.1078 139.159 73.896ZM102.338 77.8285C102.338 99.4744 96.9676 112.595 89.3283 112.595C81.689 112.595 74.2695 95.8232 74.2695 74.1773C74.2695 52.5314 83.8613 35.269 91.5006 35.269C99.1399 35.269 102.338 56.1826 102.338 77.8285ZM60.8021 81.9918C59.701 103.61 52.8603 116.17 45.2309 115.782C37.6015 115.393 32.0724 102.202 33.1735 80.5846C34.2745 58.9667 42.9816 38.8636 50.611 39.2522C58.2404 39.6408 61.9032 60.374 60.8021 81.9918Z" fill="white"/>
</svg>
