<svg width="51" height="52" viewBox="0 0 51 52" fill="none" xmlns="http://www.w3.org/2000/svg">
<path d="M8.17594 43.5941C3.05989 38.4781 1.5894 31.653 2.02087 24.7747C2.38901 18.9061 3.85213 13.2697 8.17594 8.9459C10.1072 7.01467 12.2789 5.47437 14.594 4.32357C17.3017 2.97753 20.2076 2.16337 23.1558 1.88172C23.9782 1.80315 24.6865 1.90032 25.4597 2.06361C25.6651 2.10698 25.8841 2.15751 26.1149 2.21076C26.7191 2.35014 27.404 2.50814 28.1359 2.60506C28.8506 2.6997 29.7159 2.67169 30.4965 2.64643C30.6627 2.64105 30.8251 2.63579 30.9814 2.63187C31.9579 2.60737 32.7451 2.63011 33.2993 2.80991C36.8222 3.95271 39.9604 6.08217 42.8242 8.9459C52.392 18.5137 52.392 34.0263 42.8242 43.5941C41.671 44.7473 40.0879 46.0118 38.7689 46.8947C38.3 47.2085 37.8294 47.3178 37.1978 47.4131C37.1194 47.4249 37.0369 47.4366 36.9511 47.4488C36.3751 47.5305 35.6431 47.6343 34.8944 47.9545C34.216 48.2447 33.5877 48.6977 33.0683 49.0721C32.9892 49.1292 32.9126 49.1843 32.8388 49.2369C32.2245 49.6739 31.7477 49.9694 31.2701 50.0846C29.8793 50.4202 28.4647 50.6325 27.0437 50.7217C26.63 50.7476 26.2457 50.6417 25.7076 50.4523C25.6523 50.4328 25.5946 50.4121 25.5347 50.3906C25.0542 50.2182 24.431 49.9946 23.7311 49.9348C23.0761 49.8789 22.3563 49.9774 21.7676 50.058C21.6844 50.0694 21.6039 50.0805 21.5265 50.0906C20.8223 50.1833 20.3097 50.2205 19.9118 50.1278C18.9729 49.9088 18.0444 49.6339 17.1318 49.303C13.8645 48.1185 10.7981 46.2163 8.17594 43.5941Z" fill="white" stroke="white" stroke-width="2" stroke-linejoin="round"/>
<g clip-path="url(#clip0_521_444)">
<mask id="mask0_521_444" style="mask-type:luminance" maskUnits="userSpaceOnUse" x="13" y="12" width="27" height="28">
<path d="M13.9961 12.7676H39.9961V39.7676H13.9961V12.7676Z" fill="white"/>
</mask>
<g mask="url(#mask0_521_444)">
<path d="M34.4711 14.0342H38.4584L29.7484 24.3983L39.9961 38.5039H31.9732L25.685 29.9507L18.4978 38.5039H14.5068L23.8222 27.4146L13.9961 14.0361H22.2232L27.8987 21.8526L34.4711 14.0342ZM33.069 36.0199H35.2789L21.0161 16.389H18.6464L33.069 36.0199Z" fill="black"/>
</g>
</g>
<defs>
<clipPath id="clip0_521_444">
<rect width="26" height="27" fill="white" transform="translate(14 12.77)"/>
</clipPath>
</defs>
</svg>
