<svg width="52" height="51" viewBox="0 0 52 51" fill="none" xmlns="http://www.w3.org/2000/svg">
<path d="M8.67594 42.8339C3.55989 37.7178 2.0894 30.8928 2.52087 24.0145C2.88901 18.1458 4.35213 12.5095 8.67594 8.18565C10.6072 6.25442 12.7789 4.71411 15.094 3.56332C17.8017 2.21728 20.7076 1.40312 23.6558 1.12147C24.4782 1.0429 25.1865 1.14007 25.9597 1.30336C26.1651 1.34673 26.3841 1.39726 26.6149 1.4505C27.2191 1.58989 27.904 1.74789 28.6359 1.84481C29.3506 1.93944 30.2159 1.91144 30.9965 1.88618C31.1627 1.88079 31.3251 1.87554 31.4814 1.87162C32.4579 1.84712 33.2451 1.86986 33.7993 2.04965C37.3222 3.19245 40.4604 5.32192 43.3242 8.18565C52.892 17.7535 52.892 33.266 43.3242 42.8339C42.171 43.987 40.5879 45.2515 39.2689 46.1344C38.8 46.4483 38.3294 46.5575 37.6978 46.6528C37.6194 46.6646 37.5369 46.6763 37.4511 46.6885C36.8751 46.7702 36.1431 46.8741 35.3944 47.1943C34.716 47.4844 34.0877 47.9374 33.5683 48.3119C33.4892 48.3689 33.4126 48.4241 33.3388 48.4766C32.7245 48.9136 32.2477 49.2092 31.7701 49.3244C30.3793 49.6599 28.9647 49.8723 27.5437 49.9614C27.13 49.9874 26.7457 49.8814 26.2076 49.692C26.1523 49.6725 26.0946 49.6518 26.0347 49.6303C25.5542 49.4579 24.931 49.2343 24.2311 49.1746C23.5761 49.1186 22.8563 49.2172 22.2676 49.2978C22.1844 49.3092 22.1039 49.3202 22.0265 49.3304C21.3223 49.4231 20.8097 49.4603 20.4118 49.3675C19.4729 49.1486 18.5444 48.8736 17.6318 48.5428C14.3645 47.3583 11.2981 45.4561 8.67594 42.8339Z" stroke="white" stroke-width="2" stroke-linejoin="round"/>
<g clip-path="url(#clip0_340_469)">
<mask id="mask0_340_469" style="mask-type:luminance" maskUnits="userSpaceOnUse" x="14" y="12" width="27" height="28">
<path d="M14.4961 12.0073H40.4961V39.0073H14.4961V12.0073Z" fill="white"/>
</mask>
<g mask="url(#mask0_340_469)">
<path d="M34.9711 13.2739H38.9584L30.2484 23.6381L40.4961 37.7436H32.4732L26.185 29.1904L18.9978 37.7436H15.0068L24.3222 26.6544L14.4961 13.2759H22.7232L28.3987 21.0924L34.9711 13.2739ZM33.569 35.2596H35.7789L21.5161 15.6287H19.1464L33.569 35.2596Z" fill="white"/>
</g>
</g>
<defs>
<clipPath id="clip0_340_469">
<rect width="26" height="27" fill="white" transform="translate(14.5 12.0098)"/>
</clipPath>
</defs>
</svg>
