<svg width="213" height="48" viewBox="0 0 213 48" fill="none" xmlns="http://www.w3.org/2000/svg">
<path d="M1.31311 3.71774C1.20713 3.15655 1.6201 2.64144 2.18125 2.61969C11.7002 2.25078 49.9895 0.856247 63.5644 1.71544C79.2065 2.70547 150.493 3.55417 168.144 2.70431C182.197 2.02763 202.069 2.43378 209.465 2.62376C210.12 2.64058 210.752 3.44347 210.521 4.27575C209.715 7.174 208.897 12.1218 209.89 18.6455C211.176 27.1053 209.574 40.7995 208.952 45.4581C208.894 45.8942 208.522 46.2255 208.056 46.2268L1.9553 46.7883C1.42299 46.7897 0.998101 46.3449 1.02398 45.8132L2.69642 11.457C2.70707 11.2382 2.69191 11.019 2.65126 10.8037L1.31311 3.71774Z" fill="#732222" stroke="#732222" stroke-width="1.85978" stroke-linejoin="round"/>
<path d="M66.2847 17.3919V31.1543H63.2719V17.3919H66.2847ZM68.8326 25.5564H65.3176V23.0271H68.6838C69.2294 23.0271 69.6447 22.8969 69.9299 22.6365C70.215 22.3761 70.3576 21.998 70.3576 21.502C70.3576 21.0185 70.215 20.6527 69.9299 20.4048C69.6447 20.1568 69.2294 20.0328 68.6838 20.0328H65.5222V17.3919H69C70.3886 17.3919 71.4735 17.7329 72.2546 18.4148C73.0481 19.0967 73.4449 20.0266 73.4449 21.2045C73.4449 22.0104 73.2465 22.6923 72.8497 23.2502C72.453 23.8082 71.8764 24.2049 71.1201 24.4405V24.1801C71.926 24.3537 72.5398 24.7133 72.9613 25.2588C73.3953 25.8043 73.6122 26.5049 73.6122 27.3603C73.6122 28.1663 73.4325 28.8544 73.0729 29.4247C72.7257 29.995 72.205 30.429 71.5107 30.7265C70.8288 31.0117 69.9919 31.1543 69 31.1543H65.5222V28.5134H68.8326C69.3905 28.5134 69.8121 28.3894 70.0973 28.1415C70.3824 27.8811 70.525 27.4967 70.525 26.9884C70.525 26.5172 70.3762 26.1639 70.0787 25.9283C69.7935 25.6803 69.3781 25.5564 68.8326 25.5564ZM74.8032 25.9841V17.3919H77.8161V25.7795C77.8161 26.6474 78.0454 27.3108 78.5042 27.7695C78.9629 28.2282 79.6139 28.4576 80.457 28.4576C81.3125 28.4576 81.9696 28.222 82.4283 27.7509C82.8995 27.2798 83.135 26.6226 83.135 25.7795V17.3919H86.1479V25.9841C86.1479 27.0752 85.9123 28.0237 85.4412 28.8296C84.9824 29.6355 84.3253 30.2616 83.4698 30.708C82.6143 31.1543 81.61 31.3775 80.457 31.3775C79.3163 31.3775 78.3182 31.1605 77.4627 30.7265C76.6196 30.2802 75.9625 29.6541 75.4913 28.8482C75.0326 28.0299 74.8032 27.0752 74.8032 25.9841ZM91.5767 25.9283L86.9272 17.3919H90.2934L92.5996 21.8554C92.7111 22.0662 92.8041 22.2646 92.8785 22.4505C92.9653 22.6241 93.0459 22.7977 93.1203 22.9713C93.1823 22.8597 93.2381 22.7481 93.2877 22.6365C93.3373 22.5125 93.3931 22.3885 93.4551 22.2646C93.5171 22.1282 93.5852 21.9856 93.6596 21.8368L95.9658 17.3919H99.239L94.5895 25.9283V31.1543H91.5767V25.9283ZM107.26 31.1543H104.284V17.3919H107.26L113.992 27.5463H113.063V17.3919H116.038V31.1543H113.063L106.33 21.0185H107.26V31.1543ZM130.882 24.2545C130.882 25.6556 130.596 26.8954 130.026 27.9741C129.456 29.0403 128.662 29.8772 127.646 30.4848C126.629 31.0799 125.451 31.3775 124.112 31.3775C122.785 31.3775 121.614 31.0799 120.597 30.4848C119.593 29.8772 118.805 29.0403 118.235 27.9741C117.677 26.9078 117.398 25.6741 117.398 24.2731C117.398 22.8721 117.683 21.6384 118.254 20.5722C118.824 19.4935 119.611 18.6566 120.616 18.0615C121.632 17.4539 122.804 17.1502 124.131 17.1502C125.47 17.1502 126.641 17.4539 127.646 18.0615C128.662 18.6566 129.456 19.4873 130.026 20.5536C130.596 21.6198 130.882 22.8535 130.882 24.2545ZM127.701 24.2545C127.701 23.3742 127.559 22.6241 127.274 22.0042C126.989 21.3719 126.579 20.8883 126.046 20.5536C125.525 20.2188 124.893 20.0514 124.149 20.0514C123.405 20.0514 122.767 20.2188 122.234 20.5536C121.701 20.8883 121.291 21.3719 121.006 22.0042C120.721 22.6241 120.578 23.3742 120.578 24.2545C120.578 25.1348 120.721 25.8911 121.006 26.5234C121.291 27.1558 121.701 27.6393 122.234 27.9741C122.767 28.3088 123.405 28.4762 124.149 28.4762C124.893 28.4762 125.525 28.3088 126.046 27.9741C126.579 27.6269 126.989 27.1372 127.274 26.5049C127.559 25.8725 127.701 25.1224 127.701 24.2545ZM134.65 31.1543L130.521 17.3919H133.664L135.468 23.3618C135.592 23.771 135.71 24.2049 135.821 24.6637C135.933 25.11 136.044 25.6741 136.156 26.3561C136.268 25.6741 136.379 25.11 136.491 24.6637C136.602 24.2173 136.72 23.7834 136.844 23.3618L138.537 17.3919H141.903L143.521 23.3618C143.632 23.7834 143.744 24.2235 143.855 24.6823C143.967 25.141 144.085 25.6989 144.209 26.3561C144.345 25.6618 144.469 25.0976 144.581 24.6637C144.692 24.2173 144.81 23.7958 144.934 23.399L146.775 17.3919H149.844L145.641 31.1543H142.702L140.192 22.1158L137.607 31.1543H134.65Z" fill="white"/>
</svg>
