<svg width="213" height="49" viewBox="0 0 213 49" fill="none" xmlns="http://www.w3.org/2000/svg">
<path d="M1.31311 4.14206C1.20713 3.58086 1.6201 3.06576 2.18125 3.04401C11.7002 2.6751 49.9895 1.28056 63.5644 2.13975C79.2065 3.12979 150.493 3.97849 168.144 3.12862C182.197 2.45195 202.069 2.8581 209.465 3.04807C210.12 3.0649 210.752 3.86778 210.521 4.70007C209.715 7.59831 208.897 12.5461 209.89 19.0698C211.176 27.5296 209.574 41.2239 208.952 45.8824C208.894 46.3185 208.522 46.6498 208.056 46.6511L1.9553 47.2126C1.42299 47.214 0.998101 46.7692 1.02398 46.2375L2.69642 11.8814C2.70707 11.6626 2.69191 11.4433 2.65126 11.2281L1.31311 4.14206Z" stroke="#732222" stroke-width="1.85978" stroke-linejoin="round"/>
<path d="M66.2847 17.8163V31.5786H63.2719V17.8163H66.2847ZM68.8326 25.9807H65.3176V23.4514H68.6838C69.2294 23.4514 69.6447 23.3212 69.9299 23.0608C70.215 22.8005 70.3576 22.4223 70.3576 21.9264C70.3576 21.4428 70.215 21.0771 69.9299 20.8291C69.6447 20.5811 69.2294 20.4571 68.6838 20.4571H65.5222V17.8163H69C70.3886 17.8163 71.4735 18.1572 72.2546 18.8391C73.0481 19.521 73.4449 20.4509 73.4449 21.6288C73.4449 22.4347 73.2465 23.1166 72.8497 23.6746C72.453 24.2325 71.8764 24.6292 71.1201 24.8648V24.6044C71.926 24.778 72.5398 25.1376 72.9613 25.6831C73.3953 26.2287 73.6122 26.9292 73.6122 27.7847C73.6122 28.5906 73.4325 29.2787 73.0729 29.849C72.7257 30.4194 72.205 30.8533 71.5107 31.1509C70.8288 31.436 69.9919 31.5786 69 31.5786H65.5222V28.9377H68.8326C69.3905 28.9377 69.8121 28.8137 70.0973 28.5658C70.3824 28.3054 70.525 27.921 70.525 27.4127C70.525 26.9416 70.3762 26.5882 70.0787 26.3526C69.7935 26.1047 69.3781 25.9807 68.8326 25.9807ZM74.8032 26.4084V17.8163H77.8161V26.2039C77.8161 27.0718 78.0454 27.7351 78.5042 28.1938C78.9629 28.6526 79.6139 28.8819 80.457 28.8819C81.3125 28.8819 81.9696 28.6464 82.4283 28.1752C82.8995 27.7041 83.135 27.047 83.135 26.2039V17.8163H86.1479V26.4084C86.1479 27.4995 85.9123 28.448 85.4412 29.2539C84.9824 30.0598 84.3253 30.6859 83.4698 31.1323C82.6143 31.5786 81.61 31.8018 80.457 31.8018C79.3163 31.8018 78.3182 31.5848 77.4627 31.1509C76.6196 30.7045 75.9625 30.0784 75.4913 29.2725C75.0326 28.4542 74.8032 27.4995 74.8032 26.4084ZM91.5767 26.3526L86.9272 17.8163H90.2934L92.5996 22.2797C92.7111 22.4905 92.8041 22.6889 92.8785 22.8748C92.9653 23.0484 93.0459 23.222 93.1203 23.3956C93.1823 23.284 93.2381 23.1724 93.2877 23.0608C93.3373 22.9368 93.3931 22.8129 93.4551 22.6889C93.5171 22.5525 93.5852 22.4099 93.6596 22.2611L95.9658 17.8163H99.239L94.5895 26.3526V31.5786H91.5767V26.3526ZM107.26 31.5786H104.284V17.8163H107.26L113.992 27.9706H113.063V17.8163H116.038V31.5786H113.063L106.33 21.4428H107.26V31.5786ZM130.882 24.6788C130.882 26.0799 130.596 27.3197 130.026 28.3984C129.456 29.4647 128.662 30.3016 127.646 30.9091C126.629 31.5042 125.451 31.8018 124.112 31.8018C122.785 31.8018 121.614 31.5042 120.597 30.9091C119.593 30.3016 118.805 29.4647 118.235 28.3984C117.677 27.3321 117.398 26.0985 117.398 24.6974C117.398 23.2964 117.683 22.0627 118.254 20.9965C118.824 19.9178 119.611 19.0809 120.616 18.4858C121.632 17.8782 122.804 17.5745 124.131 17.5745C125.47 17.5745 126.641 17.8782 127.646 18.4858C128.662 19.0809 129.456 19.9116 130.026 20.9779C130.596 22.0441 130.882 23.2778 130.882 24.6788ZM127.701 24.6788C127.701 23.7985 127.559 23.0484 127.274 22.4285C126.989 21.7962 126.579 21.3126 126.046 20.9779C125.525 20.6431 124.893 20.4757 124.149 20.4757C123.405 20.4757 122.767 20.6431 122.234 20.9779C121.701 21.3126 121.291 21.7962 121.006 22.4285C120.721 23.0484 120.578 23.7985 120.578 24.6788C120.578 25.5591 120.721 26.3154 121.006 26.9478C121.291 27.5801 121.701 28.0636 122.234 28.3984C122.767 28.7332 123.405 28.9005 124.149 28.9005C124.893 28.9005 125.525 28.7332 126.046 28.3984C126.579 28.0512 126.989 27.5615 127.274 26.9292C127.559 26.2968 127.701 25.5467 127.701 24.6788ZM134.65 31.5786L130.521 17.8163H133.664L135.468 23.7861C135.592 24.1953 135.71 24.6292 135.821 25.088C135.933 25.5343 136.044 26.0985 136.156 26.7804C136.268 26.0985 136.379 25.5343 136.491 25.088C136.602 24.6416 136.72 24.2077 136.844 23.7861L138.537 17.8163H141.903L143.521 23.7861C143.632 24.2077 143.744 24.6478 143.855 25.1066C143.967 25.5653 144.085 26.1233 144.209 26.7804C144.345 26.0861 144.469 25.5219 144.581 25.088C144.692 24.6416 144.81 24.2201 144.934 23.8233L146.775 17.8163H149.844L145.641 31.5786H142.702L140.192 22.5401L137.607 31.5786H134.65Z" fill="#732222"/>
</svg>
