<svg width="48" height="49" viewBox="0 0 48 49" fill="none" xmlns="http://www.w3.org/2000/svg">
<path d="M47.4244 24.4822C47.4244 31.5676 43.709 37.256 38.7823 41.6011C34.6031 45.2869 29.7226 48.1944 23.7122 48.1944C21.0705 48.1944 18.5298 47.7624 16.1567 46.9652C13.3814 46.033 10.8354 44.6012 8.62554 42.7768C7.23412 41.628 6.77862 40.3084 5.68042 38.875C4.80789 37.7361 2.98704 36.4906 2.32981 35.2022C0.682403 31.9728 0 28.3562 0 24.4822C0 11.3863 10.6163 0.77002 23.7122 0.77002C25.2978 0.77002 27.2311 0.987202 28.7295 1.28401C30.1761 1.57055 30.8004 2.64702 32.1393 3.18374C33.371 3.67746 34.9425 3.55163 36.062 4.23595C37.2434 4.95813 38.3567 5.78081 39.39 6.6921C40.2719 7.46989 40.3888 8.58629 41.1467 9.48579C41.8805 10.3567 43.2595 11.007 43.8635 11.9784C44.3562 12.7708 44.8035 13.5944 45.2018 14.4456C46.6277 17.4936 47.4244 20.8949 47.4244 24.4822Z" fill="#732222"/>
<path fill-rule="evenodd" clip-rule="evenodd" d="M31.9987 13.7713C32.2911 13.6482 32.6113 13.6058 32.9257 13.6484C33.2401 13.691 33.5374 13.8171 33.7866 14.0136C34.0357 14.2101 34.2277 14.4697 34.3424 14.7656C34.4572 15.0614 34.4906 15.3826 34.4391 15.6957L31.7549 31.9771C31.4945 33.5476 29.7713 34.4482 28.331 33.6659C27.1262 33.0114 25.3368 32.0031 23.7272 30.951C22.9225 30.4243 20.4572 28.7378 20.7602 27.5378C21.0206 26.5117 25.1628 22.6558 27.5298 20.3634C28.4589 19.4628 28.0352 18.9432 26.9381 19.7717C24.2137 21.8286 19.8395 24.9566 18.3932 25.8371C17.1174 26.6135 16.4523 26.746 15.657 26.6135C14.206 26.372 12.8604 25.998 11.7621 25.5424C10.278 24.927 10.3502 22.8866 11.7609 22.2925L31.9987 13.7713Z" fill="white"/>
</svg>
