<svg width="48" height="48" viewBox="0 0 48 48" fill="none" xmlns="http://www.w3.org/2000/svg">
<path d="M46.4945 24.0579C46.4945 30.7858 42.9737 36.2404 38.1673 40.4794C34.0664 44.0961 29.3982 46.8402 23.7122 46.8402C21.1725 46.8402 18.7317 46.425 16.4528 45.6594C13.7873 44.764 11.3412 43.3887 9.21756 41.6354C8.6251 41.1463 8.2233 40.6167 7.82222 40.0009C7.7157 39.8373 7.60492 39.6601 7.48817 39.4733C7.18255 38.9844 6.83611 38.4302 6.41857 37.8852C6.01088 37.353 5.42355 36.8025 4.89365 36.3058C4.7808 36.2001 4.67056 36.0967 4.56521 35.9965C3.90702 35.3706 3.40437 34.838 3.15815 34.3554C1.59316 31.2875 0.929889 27.8239 0.929889 24.0579C0.929889 11.4756 11.1299 1.27559 23.7122 1.27559C25.2286 1.27559 27.101 1.48507 28.5488 1.77186C29.0635 1.87381 29.4448 2.11142 29.9227 2.46402C29.9821 2.50783 30.044 2.55433 30.1085 2.60279C30.5409 2.92776 31.0905 3.34081 31.7933 3.62255C32.4302 3.87785 33.1412 3.99314 33.7289 4.08844C33.8184 4.10295 33.9051 4.11699 33.9881 4.131C34.6794 4.24755 35.1873 4.36678 35.577 4.60503C36.7121 5.2989 37.7819 6.08942 38.7749 6.96519C39.064 7.22014 39.247 7.54249 39.4763 8.02082C39.4998 8.07002 39.5241 8.12155 39.5494 8.17507C39.752 8.60439 40.0147 9.16117 40.4356 9.66066C40.8295 10.1281 41.3677 10.5366 41.8078 10.8708C41.8699 10.9179 41.9301 10.9636 41.9877 11.0078C42.5117 11.4099 42.8732 11.7225 43.0738 12.0451C43.5472 12.8065 43.977 13.5977 44.3595 14.4154C45.729 17.3425 46.4945 20.6095 46.4945 24.0579Z" stroke="#732222" stroke-width="1.85978" stroke-linejoin="round"/>
<path fill-rule="evenodd" clip-rule="evenodd" d="M31.9987 13.347C32.2911 13.2239 32.6113 13.1815 32.9257 13.2241C33.2401 13.2667 33.5374 13.3928 33.7866 13.5893C34.0357 13.7858 34.2277 14.0454 34.3424 14.3413C34.4572 14.6371 34.4906 14.9583 34.4391 15.2714L31.7549 31.5527C31.4945 33.1232 29.7713 34.0239 28.331 33.2416C27.1262 32.5871 25.3368 31.5788 23.7272 30.5266C22.9225 30 20.4572 28.3135 20.7602 27.1134C21.0206 26.0874 25.1628 22.2315 27.5298 19.9391C28.4589 19.0385 28.0352 18.5189 26.9381 19.3473C24.2137 21.4043 19.8395 24.5322 18.3932 25.4128C17.1174 26.1891 16.4523 26.3217 15.657 26.1891C14.206 25.9477 12.8604 25.5737 11.7621 25.1181C10.278 24.5027 10.3502 22.4623 11.7609 21.8682L31.9987 13.347Z" fill="#732222"/>
</svg>
