<svg width="48" height="49" viewBox="0 0 48 49" fill="none" xmlns="http://www.w3.org/2000/svg">
<path d="M7.3688 41.2499C2.35865 36.2398 0.963473 29.5904 1.37474 23.0342C1.72361 17.4728 3.11878 11.9659 7.3688 7.71587C9.23673 5.84794 11.3388 4.35681 13.5805 3.24246C16.2021 1.93923 19.0148 1.15135 21.8675 0.878824C23.6637 0.707226 24.9188 1.31824 26.709 1.55528C28.1312 1.74361 30.2995 1.33681 31.6753 1.78309C35.1237 2.90173 38.1635 4.97653 40.9029 7.71587C50.1631 16.9761 50.1631 31.9898 40.9029 41.2499C39.7817 42.3711 38.2611 43.5846 36.9916 44.4343C35.7661 45.2546 34.5635 44.9348 33.2373 45.5021C32.0172 46.0239 30.9949 47.2241 29.7194 47.5318C28.3734 47.8565 27.0045 48.062 25.6295 48.1483C24.4559 48.2219 23.5838 47.5152 22.4118 47.4151C21.2771 47.3181 19.8422 47.8333 18.7283 47.5736C17.8195 47.3617 16.9208 47.0956 16.0373 46.7753C12.8738 45.6283 9.90543 43.7866 7.3688 41.2499Z" fill="#732222"/>
<g clip-path="url(#clip0_521_449)">
<path d="M32.3973 12.7329H36.1785L27.9186 22.5614L37.6367 35.938H30.0285L24.0652 27.8268L17.2495 35.938H13.4648L22.2988 25.4218L12.9805 12.7347H20.7824L26.1645 20.1473L32.3973 12.7329ZM31.0676 33.5823H33.1634L19.6377 14.966H17.3904L31.0676 33.5823Z" fill="white"/>
</g>
<defs>
<clipPath id="clip0_521_449">
<rect width="25" height="25" fill="white" transform="translate(12.6367 11.5581)"/>
</clipPath>
</defs>
</svg>
