<svg width="48" height="48" viewBox="0 0 48 48" fill="none" xmlns="http://www.w3.org/2000/svg">
<path d="M8.02633 40.1681C3.26898 35.4107 1.90158 29.0642 2.3028 22.6681C2.64513 17.2109 4.00568 11.9697 8.02633 7.94909C9.82217 6.15325 11.8417 4.72094 13.9944 3.65083C16.5123 2.39916 19.2145 1.64209 21.9559 1.38018C22.7207 1.30712 23.3793 1.39748 24.0984 1.54932C24.2893 1.58965 24.493 1.63663 24.7076 1.68614C25.2694 1.81576 25.9063 1.96268 26.5869 2.0528C27.2515 2.1408 28.056 2.11477 28.7819 2.09127C28.9365 2.08627 29.0875 2.08138 29.2329 2.07773C30.1409 2.05495 30.8729 2.0761 31.3883 2.24329C34.6642 3.30596 37.5824 5.28613 40.2454 7.94909C49.1424 16.8461 49.1424 31.2711 40.2454 40.1681C39.173 41.2404 37.701 42.4162 36.4744 43.2372C36.0384 43.5291 35.6007 43.6307 35.0135 43.7193C34.9405 43.7303 34.8639 43.7412 34.784 43.7525C34.2485 43.8285 33.5678 43.925 32.8716 44.2228C32.2407 44.4926 31.6564 44.9138 31.1735 45.262C31.0999 45.3151 31.0287 45.3664 30.9601 45.4152C30.3889 45.8216 29.9454 46.0964 29.5014 46.2035C28.2081 46.5155 26.8927 46.713 25.5712 46.7959C25.1866 46.82 24.8292 46.7216 24.3289 46.5454C24.2774 46.5273 24.2238 46.508 24.1681 46.488C23.7212 46.3277 23.1417 46.1198 22.4909 46.0642C21.8819 46.0122 21.2125 46.1039 20.665 46.1788C20.5877 46.1894 20.5128 46.1997 20.4409 46.2091C19.786 46.2953 19.3094 46.3299 18.9394 46.2437C18.0663 46.0401 17.2029 45.7844 16.3543 45.4767C13.3161 44.3753 10.4647 42.6065 8.02633 40.1681Z" stroke="#732222" stroke-width="1.85978" stroke-linejoin="round"/>
<g clip-path="url(#clip0_521_448)">
<path d="M31.3973 12.7329H35.1785L26.9186 22.5614L36.6367 35.938H29.0285L23.0652 27.8268L16.2495 35.938H12.4648L21.2988 25.4218L11.9805 12.7347H19.7824L25.1645 20.1473L31.3973 12.7329ZM30.0676 33.5823H32.1634L18.6377 14.966H16.3904L30.0676 33.5823Z" fill="#732222"/>
</g>
<defs>
<clipPath id="clip0_521_448">
<rect width="25" height="25" fill="white" transform="translate(11.6367 11.5581)"/>
</clipPath>
</defs>
</svg>
