<svg width="45" height="46" viewBox="0 0 45 46" fill="none" xmlns="http://www.w3.org/2000/svg">
<path d="M7.29771 38.3581C2.81554 33.8759 1.52155 27.8921 1.901 21.8433C2.225 16.6782 3.51161 11.7386 7.29771 7.95248C8.99262 6.25757 10.8985 4.90592 12.9299 3.89611C15.306 2.71495 17.856 2.00047 20.4432 1.7533C21.152 1.68558 21.7638 1.76886 22.4406 1.91179C22.618 1.94925 22.8089 1.99328 23.011 2.03991C23.5456 2.16323 24.159 2.30474 24.8108 2.39106C25.4521 2.47597 26.2282 2.45078 26.9168 2.42843C27.0625 2.4237 27.2042 2.4191 27.3399 2.41569C28.2036 2.39402 28.8787 2.41551 29.3459 2.56708C32.4325 3.56835 35.1861 5.43532 37.7033 7.95248C46.0996 16.3487 46.0996 29.9618 37.7033 38.3581C36.692 39.3694 35.3013 40.4803 34.1429 41.2557C33.7515 41.5177 33.3577 41.6111 32.8045 41.6946C32.7365 41.7048 32.6646 41.715 32.5893 41.7257C32.0819 41.7975 31.4195 41.8913 30.7434 42.1805C30.1317 42.4421 29.5654 42.8505 29.1082 43.1803C29.0388 43.2304 28.9718 43.2786 28.9077 43.3243C28.3652 43.7102 27.961 43.9581 27.5642 44.0538C26.3437 44.3482 25.1023 44.5346 23.8552 44.6128C23.5157 44.6341 23.1961 44.5482 22.7227 44.3816C22.6746 44.3646 22.624 44.3465 22.5713 44.3275C22.1484 44.1757 21.5837 43.9729 20.9497 43.9187C20.3576 43.8682 19.7079 43.9573 19.19 44.0283C19.1169 44.0383 19.0464 44.048 18.9791 44.0568C18.3558 44.1389 17.9238 44.168 17.5965 44.0917C16.7725 43.8995 15.9577 43.6583 15.1568 43.3679C12.2898 42.3285 9.59898 40.6593 7.29771 38.3581Z" stroke="#090404" stroke-opacity="0.2" stroke-width="2" stroke-linejoin="round"/>
<path fill-rule="evenodd" clip-rule="evenodd" d="M20.2808 11.9621C18.7562 12.7618 17.5089 13.4386 17.5092 13.4661C17.5099 13.5371 21.1681 15.4028 21.298 15.3983C21.357 15.3963 21.7855 15.1977 22.2501 14.957L23.095 14.5195L24.0176 14.997L24.9403 15.4747L26.4512 14.7911C28.7279 13.7609 28.9644 13.648 28.9274 13.6101C28.8782 13.5597 28.0616 13.118 25.8461 11.9435C24.7754 11.3758 23.7361 10.8192 23.5366 10.7066C23.3369 10.5938 23.1465 10.5032 23.1132 10.5049C23.0799 10.5067 21.8053 11.1624 20.2807 11.962L20.2808 11.9621ZM13.594 15.4488L12.007 16.2744V19.8973C12.007 21.89 12.0278 23.5202 12.0534 23.5202C12.079 23.5202 12.8597 23.1794 13.7885 22.7628L15.4773 22.0053V18.1865L16.3026 18.6393C16.9385 18.9879 17.5749 19.3356 18.2115 19.6828L19.2951 20.2736L19.7773 20.054C20.0797 19.916 20.3815 19.7768 20.6827 19.6361C20.9154 19.527 21.4868 19.2678 21.9523 19.0602C22.4179 18.8525 22.8488 18.6435 22.9099 18.5959C22.9911 18.5327 22.0013 17.9819 19.249 16.5586C17.1744 15.4858 15.4104 14.6114 15.329 14.6156C15.2476 14.6199 14.4669 14.9947 13.594 15.4487V15.4488ZM29.2132 15.6806C28.1323 16.1719 27.2472 16.5936 27.2462 16.6176C27.2453 16.6417 27.8343 16.9944 28.5554 17.4014C29.2763 17.8085 29.8663 18.1633 29.8663 18.1901C29.8663 18.2168 29.2283 18.528 28.4486 18.882C27.6687 19.2358 25.6977 20.1322 24.0684 20.8739L18.6089 23.3588C17.2355 23.984 15.9977 24.5475 15.858 24.6111C13.0529 25.8898 12.2819 26.2446 12.1761 26.3055C12.0696 26.3668 12.0455 26.7231 12.0266 28.511L12.0039 30.6436L13.4232 31.3717L14.8423 32.0999L16.8103 31.2056C17.8927 30.7138 18.7782 30.2856 18.7782 30.254C18.7782 30.2224 18.5782 30.0914 18.3338 29.9623C18.0894 29.8332 17.5847 29.5475 17.2123 29.3272C16.8399 29.1069 16.4686 28.9048 16.387 28.878C16.3055 28.8513 16.2401 28.8045 16.2414 28.774C16.2427 28.7435 17.1093 28.3291 18.167 27.8528C20.2213 26.9279 21.7935 26.215 25.1687 24.6781C26.6779 23.9909 28.1875 23.3045 29.697 22.618C31.0237 22.0149 32.5664 21.3107 33.125 21.0529L34.1407 20.5843L34.1632 18.4275L34.1859 16.2708L32.7464 15.5269C31.9547 15.1177 31.278 14.7839 31.2425 14.7852C31.2071 14.7863 30.2938 15.1893 29.213 15.6807L29.2132 15.6806ZM33.7551 23.4615C33.543 23.5659 33.1241 23.7612 32.8241 23.8956C32.5241 24.0299 31.955 24.2885 31.5592 24.4704L30.8398 24.8008L30.8234 26.6943C30.8144 27.7356 30.7762 28.5831 30.7387 28.5776C30.6536 28.5648 29.3051 27.8684 27.9497 27.1371C26.9714 26.6092 26.9099 26.5883 26.6801 26.7029C26.5472 26.7693 25.7528 27.128 24.9148 27.5002C24.0769 27.8725 23.364 28.2013 23.3304 28.2311C23.297 28.2608 24.9834 29.1812 27.0782 30.2766L30.8868 32.2682L32.5138 31.4207C33.4086 30.9546 34.1694 30.5295 34.2044 30.476C34.2833 30.3558 34.2766 23.2552 34.1976 23.2648C34.1663 23.2687 33.9672 23.3571 33.755 23.4614L33.7551 23.4615ZM24.7455 31.7958C24.4633 31.918 24.1812 32.0404 23.8992 32.1628C23.0474 32.5339 23.2143 32.5462 22.2009 32.0383C21.526 31.7 21.2351 31.5956 21.1088 31.6462C21.0141 31.6842 20.1989 32.0536 19.2972 32.467C18.3954 32.8804 17.6264 33.2185 17.5882 33.2185C17.2098 33.2185 17.8389 33.597 20.2658 34.8298L23.1121 36.2754L24.3097 35.6801C24.9683 35.3526 26.2969 34.6968 27.2621 34.223C28.2271 33.7489 29.0049 33.3487 28.9903 33.3336C28.9756 33.3185 28.167 32.9004 27.1932 32.4044L25.4226 31.5027L24.7455 31.796V31.7958Z" fill="#310303"/>
</svg>
