<svg width="45" height="46" viewBox="0 0 45 46" fill="none" xmlns="http://www.w3.org/2000/svg">
<path d="M7.29771 38.3581C2.81554 33.8759 1.52155 27.8921 1.901 21.8433C2.225 16.6782 3.51161 11.7386 7.29771 7.95248C8.99262 6.25757 10.8985 4.90592 12.9299 3.89611C15.306 2.71495 17.856 2.00047 20.4432 1.7533C21.152 1.68558 21.7638 1.76886 22.4406 1.91179C22.618 1.94925 22.8089 1.99328 23.011 2.03991C23.5456 2.16323 24.159 2.30474 24.8108 2.39106C25.4521 2.47597 26.2282 2.45078 26.9168 2.42843C27.0625 2.4237 27.2042 2.4191 27.3399 2.41569C28.2036 2.39402 28.8787 2.41551 29.3459 2.56708C32.4325 3.56835 35.1861 5.43532 37.7033 7.95248C46.0996 16.3487 46.0996 29.9618 37.7033 38.3581C36.692 39.3694 35.3013 40.4803 34.1429 41.2557C33.7515 41.5177 33.3577 41.6111 32.8045 41.6946C32.7365 41.7048 32.6646 41.715 32.5893 41.7257C32.0819 41.7975 31.4195 41.8913 30.7434 42.1805C30.1317 42.4421 29.5654 42.8505 29.1082 43.1803C29.0388 43.2304 28.9718 43.2786 28.9077 43.3243C28.3652 43.7102 27.961 43.9581 27.5642 44.0538C26.3437 44.3482 25.1023 44.5346 23.8552 44.6128C23.5157 44.6341 23.1961 44.5482 22.7227 44.3816C22.6746 44.3646 22.624 44.3465 22.5713 44.3275C22.1484 44.1757 21.5837 43.9729 20.9497 43.9187C20.3576 43.8682 19.7079 43.9573 19.19 44.0283C19.1169 44.0383 19.0464 44.048 18.9791 44.0568C18.3558 44.1389 17.9238 44.168 17.5965 44.0917C16.7725 43.8995 15.9577 43.6583 15.1568 43.3679C12.2898 42.3285 9.59898 40.6593 7.29771 38.3581Z" stroke="#090404" stroke-opacity="0.2" stroke-width="2" stroke-linejoin="round"/>
<path fill-rule="evenodd" clip-rule="evenodd" d="M24.404 20.0035C25.0807 19.6676 25.9416 19.1729 26.8038 18.4951C26.9855 18.8711 27.0056 19.1991 26.9117 19.4638C26.8454 19.6505 26.7202 19.8128 26.5559 19.9419C26.3779 20.0814 26.1555 20.1832 25.9097 20.2381C25.4433 20.3427 24.8986 20.2815 24.404 20.0033M24.5213 23.4462L25.4171 23.9614C23.5881 24.9823 23.0908 26.8779 22.5 28.724C21.9095 26.8779 21.4122 24.9821 19.5832 23.9614L20.4789 23.4462C20.6567 23.3793 20.771 23.2061 20.762 23.017C20.6799 21.288 21.1487 20.5233 21.7813 20.0433C22.008 19.8714 22.2557 19.7851 22.5 19.7851C22.7444 19.7851 22.992 19.8714 23.2188 20.0433C23.8511 20.5235 24.32 21.288 24.238 23.017C24.229 23.2061 24.3435 23.3793 24.5211 23.4462H24.5213ZM22.5002 12.1562C23.5357 12.184 24.5738 12.3841 25.4746 12.7735C26.0985 13.0435 26.6805 13.4001 27.2077 13.8266C27.4457 14.0191 27.6418 14.2052 27.8577 14.4193C28.44 14.4393 29.2911 13.7952 29.6862 13.1924C29.0062 15.4123 25.9033 18.0336 23.7552 19.0367C23.7544 19.0363 23.7538 19.0359 23.7532 19.0355C23.3677 18.7424 22.9341 18.5957 22.5004 18.5957C22.0668 18.5957 21.6332 18.7424 21.2477 19.0355C21.2471 19.0359 21.2464 19.0365 21.2456 19.0367C19.0971 18.0336 15.9945 15.4121 15.3145 13.1924C15.7096 13.7952 16.5605 14.4395 17.1428 14.4193C17.3587 14.2054 17.5547 14.0191 17.7927 13.8266C18.3198 13.4001 18.9019 13.0435 19.5258 12.7735C20.4269 12.3841 21.4648 12.184 22.5002 12.1562ZM20.5965 20.0035C19.9199 19.6676 19.0588 19.1729 18.1967 18.4951C18.015 18.8711 17.9949 19.1991 18.0885 19.4638C18.1549 19.6505 18.28 19.8128 18.4443 19.9419C18.6225 20.0814 18.845 20.1832 19.0908 20.2381C19.5572 20.3427 20.1018 20.2815 20.5963 20.0033" fill="#310303"/>
<path fill-rule="evenodd" clip-rule="evenodd" d="M27.75 17.6649C28.2246 17.188 28.6429 16.6601 28.979 16.189L29.1499 16.509C29.6997 17.6043 29.9854 18.6954 29.9854 19.9231L29.9842 21.8715L29.9944 22.8813C30.0341 25.3608 30.5731 27.8693 31.7935 30.165L29.24 28.1147L27.4334 31.0342L25.5354 29.2549L22.5022 34.1564L19.469 29.2551L17.571 31.0344L15.7644 28.1149L13.2109 30.1652C14.4313 27.8695 14.9701 25.3608 15.01 22.8815L15.0202 21.8717L15.019 19.9233C15.019 18.6954 15.3045 17.6045 15.8545 16.5092L16.0251 16.1892C16.3615 16.6601 16.7796 17.188 17.2542 17.6651L17.1059 17.9717C16.8179 18.5671 16.7226 19.2329 16.9469 19.8662C17.0915 20.2739 17.3553 20.6238 17.6956 20.8908C18.026 21.15 18.417 21.3248 18.8263 21.4166C19.0929 21.4764 19.3646 21.5011 19.6345 21.4927C19.5716 21.8482 19.544 22.2168 19.5424 22.5925L17.1337 23.9779L18.9924 25.0153C19.1409 25.0983 19.2824 25.1932 19.4152 25.2995C20.9475 26.6695 21.8689 30.7227 22.502 32.7025C23.1351 30.7227 24.0565 26.6695 25.5888 25.2995C25.7216 25.1934 25.8631 25.0983 26.0116 25.0153L27.8703 23.9779L25.4616 22.5925C25.4598 22.2168 25.4324 21.8482 25.3695 21.4927C25.6394 21.5011 25.911 21.4764 26.1777 21.4166C26.587 21.3248 26.978 21.15 27.3084 20.8908C27.6487 20.6238 27.9125 20.2739 28.0571 19.8662C28.2814 19.2331 28.1861 18.5673 27.8981 17.9717L27.7498 17.6651L27.75 17.6649Z" fill="#310303"/>
</svg>
