<svg width="45" height="46" viewBox="0 0 45 46" fill="none" xmlns="http://www.w3.org/2000/svg">
<path d="M7.29771 38.3581C2.81554 33.8759 1.52155 27.8921 1.901 21.8433C2.225 16.6782 3.51161 11.7386 7.29771 7.95248C8.99262 6.25757 10.8985 4.90592 12.9299 3.89611C15.306 2.71495 17.856 2.00047 20.4432 1.7533C21.152 1.68558 21.7638 1.76886 22.4406 1.91179C22.618 1.94925 22.8089 1.99328 23.011 2.03991C23.5456 2.16323 24.159 2.30474 24.8108 2.39106C25.4521 2.47597 26.2282 2.45078 26.9168 2.42843C27.0625 2.4237 27.2042 2.4191 27.3399 2.41569C28.2036 2.39402 28.8787 2.41551 29.3459 2.56708C32.4325 3.56835 35.1861 5.43532 37.7033 7.95248C46.0996 16.3487 46.0996 29.9618 37.7033 38.3581C36.692 39.3694 35.3013 40.4803 34.1429 41.2557C33.7515 41.5177 33.3577 41.6111 32.8045 41.6946C32.7365 41.7048 32.6646 41.715 32.5893 41.7257C32.0819 41.7975 31.4195 41.8913 30.7434 42.1805C30.1317 42.4421 29.5654 42.8505 29.1082 43.1803C29.0388 43.2304 28.9718 43.2786 28.9077 43.3243C28.3652 43.7102 27.961 43.9581 27.5642 44.0538C26.3437 44.3482 25.1023 44.5346 23.8552 44.6128C23.5157 44.6341 23.1961 44.5482 22.7227 44.3816C22.6746 44.3646 22.624 44.3465 22.5713 44.3275C22.1484 44.1757 21.5837 43.9729 20.9497 43.9187C20.3576 43.8682 19.7079 43.9573 19.19 44.0283C19.1169 44.0383 19.0464 44.048 18.9791 44.0568C18.3558 44.1389 17.9238 44.168 17.5965 44.0917C16.7725 43.8995 15.9577 43.6583 15.1568 43.3679C12.2898 42.3285 9.59898 40.6593 7.29771 38.3581Z" stroke="#090404" stroke-opacity="0.2" stroke-width="2" stroke-linejoin="round"/>
<g clip-path="url(#clip0_525_109)">
<mask id="mask0_525_109" style="mask-type:luminance" maskUnits="userSpaceOnUse" x="11" y="12" width="23" height="23">
<path d="M11.9062 12.1533H33.0914V34.1533H11.9062V12.1533Z" fill="white"/>
</mask>
<g mask="url(#mask0_525_109)">
<path d="M28.5896 13.1851H31.8385L24.7414 21.6299L33.0914 33.1233H26.5543L21.4305 26.1541L15.5743 33.1233H12.3224L19.9127 24.0876L11.9062 13.1866H18.6098L23.2343 19.5556L28.5896 13.1851ZM27.4471 31.0993H29.2478L17.6262 15.1038H15.6954L27.4471 31.0993Z" fill="#310303"/>
</g>
</g>
<defs>
<clipPath id="clip0_525_109">
<rect width="21.1852" height="22" fill="white" transform="translate(11.9082 12.1553)"/>
</clipPath>
</defs>
</svg>
