<svg width="309" height="118" viewBox="0 0 309 118" fill="none" xmlns="http://www.w3.org/2000/svg">
<path d="M189.091 30.6966C212.928 30.8635 234.305 30.7237 244.126 30.1089C265.591 28.7651 296.396 29.6906 305.464 30.0112C306.741 30.0564 307.627 31.3572 307.292 32.5898C306.092 37.0093 304.09 47.1479 305.769 61.5059C307.769 78.5961 305.03 106.625 304.282 113.637C304.182 114.574 303.394 115.269 302.453 115.272L3.44731 116.331C2.39032 116.335 1.54271 115.458 1.58225 114.402L4.07006 47.9504C4.07428 47.8378 4.06825 47.725 4.05205 47.6135L1.8025 32.1244C1.64531 31.0421 2.42156 30.0606 3.51382 30.0048C15.0404 29.416 73.0825 26.5877 93.3368 28.2546C98.9935 28.7201 109.712 29.1691 122.996 29.5553" stroke="#310303" stroke-width="1.85978" stroke-linecap="round" stroke-linejoin="round"/>
<path d="M114.794 65.472V79.2344H111.782V65.472H114.794ZM117.342 73.6364H113.827V71.1071H117.194C117.739 71.1071 118.154 70.977 118.44 70.7166C118.725 70.4562 118.867 70.0781 118.867 69.5821C118.867 69.0986 118.725 68.7328 118.44 68.4849C118.154 68.2369 117.739 68.1129 117.194 68.1129H114.032V65.472H117.51C118.898 65.472 119.983 65.813 120.764 66.4949C121.558 67.1768 121.955 68.1067 121.955 69.2846C121.955 70.0905 121.756 70.7724 121.359 71.3303C120.963 71.8882 120.386 72.285 119.63 72.5206V72.2602C120.436 72.4338 121.05 72.7933 121.471 73.3389C121.905 73.8844 122.122 74.5849 122.122 75.4404C122.122 76.2463 121.942 76.9344 121.583 77.5048C121.236 78.0751 120.715 78.5091 120.02 78.8066C119.339 79.0918 118.502 79.2344 117.51 79.2344H114.032V76.5935H117.342C117.9 76.5935 118.322 76.4695 118.607 76.2215C118.892 75.9612 119.035 75.5768 119.035 75.0685C119.035 74.5973 118.886 74.244 118.588 74.0084C118.303 73.7604 117.888 73.6364 117.342 73.6364ZM123.313 74.0642V65.472H126.326V73.8596C126.326 74.7275 126.555 75.3908 127.014 75.8496C127.473 76.3083 128.124 76.5377 128.967 76.5377C129.822 76.5377 130.479 76.3021 130.938 75.831C131.409 75.3598 131.645 74.7027 131.645 73.8596V65.472H134.658V74.0642C134.658 75.1553 134.422 76.1037 133.951 76.9097C133.492 77.7156 132.835 78.3417 131.98 78.788C131.124 79.2344 130.12 79.4575 128.967 79.4575C127.826 79.4575 126.828 79.2406 125.972 78.8066C125.129 78.3603 124.472 77.7342 124.001 76.9282C123.542 76.1099 123.313 75.1553 123.313 74.0642ZM140.086 74.0084L135.437 65.472H138.803L141.109 69.9355C141.221 70.1463 141.314 70.3446 141.388 70.5306C141.475 70.7042 141.556 70.8778 141.63 71.0513C141.692 70.9398 141.748 70.8282 141.797 70.7166C141.847 70.5926 141.903 70.4686 141.965 70.3446C142.027 70.2083 142.095 70.0657 142.169 69.9169L144.476 65.472H147.749L143.099 74.0084V79.2344H140.086V74.0084ZM155.77 79.2344H152.794V65.472H155.77L162.502 75.6264H161.572V65.472H164.548V79.2344H161.572L154.84 69.0986H155.77V79.2344ZM179.391 72.3346C179.391 73.7356 179.106 74.9755 178.536 76.0542C177.966 77.1204 177.172 77.9573 176.155 78.5649C175.139 79.16 173.961 79.4575 172.622 79.4575C171.295 79.4575 170.124 79.16 169.107 78.5649C168.103 77.9573 167.315 77.1204 166.745 76.0542C166.187 74.9879 165.908 73.7542 165.908 72.3532C165.908 70.9522 166.193 69.7185 166.764 68.6522C167.334 67.5736 168.121 66.7367 169.125 66.1415C170.142 65.534 171.314 65.2302 172.64 65.2302C173.979 65.2302 175.151 65.534 176.155 66.1415C177.172 66.7367 177.966 67.5674 178.536 68.6336C179.106 69.6999 179.391 70.9336 179.391 72.3346ZM176.211 72.3346C176.211 71.4543 176.069 70.7042 175.783 70.0843C175.498 69.4519 175.089 68.9684 174.556 68.6336C174.035 68.2989 173.403 68.1315 172.659 68.1315C171.915 68.1315 171.277 68.2989 170.743 68.6336C170.21 68.9684 169.801 69.4519 169.516 70.0843C169.231 70.7042 169.088 71.4543 169.088 72.3346C169.088 73.2149 169.231 73.9712 169.516 74.6035C169.801 75.2359 170.21 75.7194 170.743 76.0542C171.277 76.3889 171.915 76.5563 172.659 76.5563C173.403 76.5563 174.035 76.3889 174.556 76.0542C175.089 75.707 175.498 75.2173 175.783 74.5849C176.069 73.9526 176.211 73.2025 176.211 72.3346ZM183.159 79.2344L179.031 65.472H182.174L183.978 71.4419C184.102 71.8511 184.219 72.285 184.331 72.7437C184.443 73.1901 184.554 73.7542 184.666 74.4361C184.777 73.7542 184.889 73.1901 185.001 72.7437C185.112 72.2974 185.23 71.8635 185.354 71.4419L187.046 65.472H190.412L192.03 71.4419C192.142 71.8635 192.254 72.3036 192.365 72.7623C192.477 73.2211 192.595 73.779 192.719 74.4361C192.855 73.7418 192.979 73.1777 193.091 72.7437C193.202 72.2974 193.32 71.8759 193.444 71.4791L195.285 65.472H198.354L194.151 79.2344H191.212L188.701 70.1959L186.116 79.2344H183.159Z" fill="#310303"/>
<path d="M138.962 38.1364C134.377 33.6512 133.054 27.6638 133.442 21.6131C133.773 16.4468 135.089 11.504 138.962 7.71517C140.695 6.01941 142.644 4.66706 144.722 3.65672C147.152 2.47495 149.76 1.76011 152.406 1.51281C153.132 1.44494 153.759 1.52844 154.451 1.67149C154.633 1.70902 154.828 1.75311 155.035 1.79977C155.581 1.92306 156.208 2.06438 156.873 2.15061C157.528 2.23539 158.32 2.21024 159.024 2.1879C159.173 2.18317 159.318 2.17857 159.457 2.17515C160.34 2.15349 161.032 2.17485 161.511 2.32708C164.669 3.32901 167.485 5.19711 170.059 7.71517C178.646 16.1158 178.646 29.7358 170.059 38.1364C169.024 39.1483 167.602 40.2597 166.418 41.0354C166.015 41.2988 165.611 41.3925 165.045 41.476C164.975 41.4863 164.902 41.4965 164.825 41.5071C164.306 41.579 163.63 41.6726 162.941 41.9612C162.317 42.2223 161.739 42.6299 161.271 42.9597C161.2 43.0098 161.132 43.0581 161.066 43.1038C160.512 43.4897 160.097 43.7388 159.689 43.8351C158.441 44.1296 157.171 44.3161 155.896 44.3944C155.546 44.4158 155.218 44.3292 154.734 44.1625C154.684 44.1455 154.633 44.1274 154.579 44.1084C154.146 43.9566 153.57 43.7543 152.924 43.7003C152.32 43.6498 151.657 43.7387 151.128 43.8097C151.053 43.8197 150.981 43.8294 150.912 43.8383C150.275 43.9203 149.832 43.9498 149.495 43.8729C148.652 43.6807 147.819 43.4393 146.999 43.1488C144.067 42.1089 141.315 40.4388 138.962 38.1364Z" stroke="#090404" stroke-opacity="0.2" stroke-width="2" stroke-linejoin="round"/>
<path d="M152.422 24.2998C152.095 30.5724 150.066 34.217 147.803 34.1042C145.54 33.9915 143.9 30.1641 144.227 23.8914C144.554 17.6188 147.136 11.7857 149.399 11.8984C151.662 12.0112 152.749 18.0271 152.422 24.2998Z" fill="#310303"/>
<path d="M164.741 23.0918C164.741 29.3725 163.148 33.1796 160.883 33.1796C158.617 33.1796 156.416 28.3131 156.416 22.0323C156.416 15.7515 159.261 10.7427 161.527 10.7427C163.793 10.7427 164.741 16.811 164.741 23.0918Z" fill="#310303"/>
</svg>
