<svg width="137" height="43" viewBox="0 0 137 43" fill="none" xmlns="http://www.w3.org/2000/svg">
<path d="M124.969 1.42432L136.43 2.93692C131.382 9.77166 127.016 16.4383 123.196 22.9369C125.856 27.3067 131.245 35.3844 136.43 41.0426L122.156 42.2647C120.338 36.9332 115.965 31.5083 112.077 25.8501L112.349 41.8165L99.5474 42.2647C99.0699 29.0434 98.8652 17.7268 98.8652 8.42712L98.9335 1.59238L112.622 1.76045C112.213 7.25065 112.077 13.3011 112.077 20.0238L124.969 1.42432Z" fill="#732222"/>
<path d="M95.0903 0.583855C95.2268 12.9088 94.8857 26.2981 94.0671 40.864C93.5896 40.864 92.8392 40.92 91.8842 40.92C90.8609 40.92 89.4284 40.976 87.5183 40.976C85.6083 40.976 83.8347 40.976 82.1975 40.976C77.2177 31.6763 73.3976 23.329 70.7372 15.822C70.3961 25.1777 70.4643 33.8612 70.8736 41.9284L58.0378 42.2645C57.8332 25.2337 57.599 12.358 58.7882 1.64828C63.4269 1.59226 69.4005 1.26266 74.0392 1.03857L84.0393 24.0572C84.1757 16.1021 84.2439 8.25892 84.2439 0.527832H86.5633C86.9726 0.527832 87.5865 0.583855 88.2687 0.583855C88.9509 0.583855 89.4284 0.583855 89.7012 0.583855H95.0903Z" fill="#732222"/>
<path d="M55.4778 0.751953C55.0685 10.0517 54.2948 15.822 54.2266 18.0069C54.022 24.6736 53.8855 30.1078 53.8173 34.2534L53.7491 40.5839L42.1523 39.9871L42.2206 34.5895V31.1162V30.0517C42.2206 29.7156 42.1523 29.4915 42.1523 29.2674C42.1523 29.0433 42.1523 28.9313 42.1523 28.8753L43.0625 1.20013L55.4778 0.751953Z" fill="#732222"/>
<path fill-rule="evenodd" clip-rule="evenodd" d="M39.0739 21.0121C38.9222 24.1104 38.4673 26.9219 37.7091 29.4465C36.9509 31.8563 35.8135 34.1513 34.1454 36.3317C32.629 38.3399 30.5818 39.889 28.0038 40.9792C25.35 42.1267 22.3171 42.7005 18.8293 42.7579C14.28 42.7579 10.4889 41.8972 7.60761 40.0612C4.72636 38.3399 2.75498 35.93 1.54183 32.9464C0.404491 30.3071 -0.126266 26.8645 0.0253791 22.676C0.0253791 18.6023 0.783602 14.8154 2.22423 11.3728C3.43738 8.15969 5.63623 5.52036 8.82077 3.34004C11.8537 1.27448 15.569 0.241699 20.1183 0.241699C26.639 0.241699 31.4916 2.07775 34.6762 5.74987C37.8607 9.53673 39.3013 14.5859 39.0739 21.0121ZM28.6904 22.1212C28.6904 28.2253 27.1759 31.9252 25.0217 31.9252C22.8674 31.9252 20.7752 27.1956 20.7752 21.0916C20.7752 14.9875 23.48 10.1196 25.6343 10.1196C27.7885 10.1196 28.6904 16.0171 28.6904 22.1212ZM16.977 23.2955C16.6665 29.3916 14.7374 32.9336 12.586 32.8241C10.4345 32.7145 8.8753 28.9948 9.1858 22.8986C9.4963 16.8025 11.9516 11.1335 14.1031 11.243C16.2546 11.3526 17.2875 17.1993 16.977 23.2955Z" fill="#732222"/>
</svg>
