<svg width="52" height="51" viewBox="0 0 52 51" fill="none" xmlns="http://www.w3.org/2000/svg">
<path d="M8.84977 42.8241C3.73372 37.7081 2.26323 30.883 2.6947 24.0047C3.06284 18.136 4.52596 12.4997 8.84977 8.17588C10.781 6.24465 12.9528 4.70435 15.2678 3.55355C17.9756 2.20751 20.8815 1.39336 23.8296 1.1117C24.6521 1.03313 25.3603 1.1303 26.1336 1.29359C26.3389 1.33696 26.558 1.38749 26.7887 1.44074C27.3929 1.58012 28.0778 1.73812 28.8097 1.83504C29.5244 1.92968 30.3897 1.90167 31.1703 1.87641C31.3365 1.87103 31.4989 1.86577 31.6552 1.86185C32.6317 1.83735 33.4189 1.86009 33.9732 2.03989C37.4961 3.18269 40.6343 5.31215 43.498 8.17588C53.0658 17.7437 53.0658 33.2563 43.498 42.8241C42.3448 43.9773 40.7618 45.2418 39.4427 46.1246C38.9738 46.4385 38.5032 46.5477 37.8717 46.643C37.7932 46.6549 37.7108 46.6666 37.6249 46.6788C37.049 46.7605 36.3169 46.8643 35.5683 47.1845C34.8898 47.4747 34.2615 47.9277 33.7421 48.3021C33.663 48.3591 33.5865 48.4143 33.5126 48.4669C32.8984 48.9039 32.4215 49.1994 31.944 49.3146C30.5532 49.6501 29.1386 49.8625 27.7175 49.9516C27.3038 49.9776 26.9195 49.8717 26.3815 49.6822C26.3261 49.6628 26.2685 49.6421 26.2086 49.6206C25.728 49.4482 25.1048 49.2246 24.405 49.1648C23.75 49.1088 23.0301 49.2074 22.4414 49.288C22.3582 49.2994 22.2777 49.3104 22.2004 49.3206C21.4961 49.4133 20.9835 49.4505 20.5857 49.3578C19.6467 49.1388 18.7182 48.8639 17.8056 48.533C14.5384 47.3485 11.472 45.4463 8.84977 42.8241Z" fill="#EBE7DD" stroke="#090404" stroke-width="2" stroke-linejoin="round"/>
<path d="M17.8709 17.8622C21.7642 20.508 30.7734 27.0952 35.6631 32.2774M16.6855 35.0146C21.6426 29.1755 32.1043 16.7493 34.2939 13.7568" stroke="black" stroke-width="2" stroke-linecap="round"/>
</svg>
